<svg height="75" viewBox="0 0 75 75" width="75" xmlns="http://www.w3.org/2000/svg"><path d="m37.4999039 6.6282768c-.9068584 0-1.6421705-.7365344-1.6421705-1.64490022 0-.90863181.7353121-1.64490021 1.6421705-1.64490021.9073895 0 1.6416394.7362684 1.6416394 1.64490021 0 .90836582-.7342499 1.64490022-1.6416394 1.64490022zm1.5178924 25.8877609c-.0292106.1433701-.2103168.335949-.348138.3614843-.2777669.0518687-.8340973-.0005319-.8340973-.0005319v-3.2735749h1.5771104c-.0624046.9126217-.1760606 1.8369471-.3948751 2.9126225zm.3948751-3.4829113h-1.5771104v-3.2738409s1.1264695-.0518686 1.4052986 0c.136759.0258013.3282216.2162523.3478725.3614844.0897564.6854638-.0778066 1.8983915-.1760607 2.9123565zm-4.0010645-2.9123565c.0196508-.1452321.2111134-.3356831.3484036-.3614844.278298-.0518686 1.405033 0 1.405033 0v3.2738409h-1.5773759c-.0982541-1.013965-.2655516-2.2268927-.1760607-2.9123565zm1.7749463 6.7562202s-.5557993.0524006-.8346284.0005319c-.1375557-.0255353-.3189274-.2181142-.3478725-.3614843-.2193455-1.0756754-.3324705-2.0000008-.3948751-2.9126225h1.577376zm18.7864411-2.6604612c-.1232159-.2553532-.3369849-.4670836-.5122489-.6955715-1.5834836 1.2360691-3.325767 2.0843205-5.3290875 2.5761414.309633.3806359.5712012.7022213.8489681 1.0434902-.4907392.3686662-.9251814.7011574-1.3670591 1.0246048-1.4278705 1.0458841-2.9513394 1.8475868-4.7262857 2.1832698-1.1482447.2167843-2.2332881.1654476-3.3002741-.2338077-.662551-.2484374-1.2287068-.6508847-1.6323451-1.163985l1.7213049-9.3895501h3.0333948s-4.0809955-3.6494228-6.3806715-6.762072c-.0103565-.3830298-.0196508-.7947868-.0292107-1.2429849-.0254929-1.3102811-.0547036-2.6205622-.0477993-3.9300454.0042489-.8392076.6675965-1.6175029 1.5330289-1.9683476.474275-.1915149.9915693-.3425989 1.4977104-.374784 1.4671721-.0928315 2.9377963-.1058652 4.405765-.1715654.5095934-.0226094 1.0149379.1207607 1.3835234.486767.3343293.3327571.6583022.5476794 1.1463858.5705548.8619802.0409629 1.7390968-.7112651 1.8195589-1.5829239.084711-.90543985-.7079603-1.82364741-1.6219886-1.81939152-.4471887.00212794-.8627768.21332632-1.1737376.52693197-.4113393.41149105-1.0815913.5487434-1.6408428.52560201-1.8604538-.07607397-3.7312641.1579998-5.576316-.32743728-.6660031-.17528934-1.3062478-.64317088-.9984736-1.40284666.1819028-.45006002.5557993-.81659826.8155086-1.22223746.2650204-.41361899.4591386-.87671266.5226054-1.36613964.2350131-1.83322319-1.0534428-3.47333554-2.8642385-3.50020082-1.8107957.02686528-3.0992516 1.66697763-2.8634419 3.50020082.0629357.48942698.2565228.95252065.5220743 1.36613964.260506.4056392.6333403.77217744.8163053 1.22223746.306712.75967578-.3335327 1.22755732-.9992703 1.40284666-1.8450519.48543708-3.7163933.25136331-5.5768471.32743728-.5579238.02314139-1.2295035-.11411096-1.6403117-.52560201-.3106952-.31360565-.7265489-.52480403-1.1737376-.52693197-.9145594-.00425589-1.706434.91395167-1.6225197 1.81939152.0812587.8716588.9586409 1.6238868 1.82009 1.5829239.4875526-.0228754.812322-.2377977 1.1466514-.5705548.3677888-.3660063.8731333-.5093764 1.3832578-.486767 1.4679687.0657002 2.9385929.0787339 4.4049683.1715654.5066723.0321851 1.0247633.1832691 1.4985071.374784.8654324.3508447 1.3062479 1.12914 1.3110278 1.9683476.0069044 1.3094832-.0223063 2.6197643-.0483304 3.9300454-.0063732.3261073-.0132775.6333291-.0204474.9237934-2.2457691 3.1762215-6.6119669 7.0812635-6.6119669 7.0812635h3.4787247l1.7207737 9.390082c-.4036383.5131004-.9697941.9150157-1.6320795 1.1634531-1.0672515.3992553-2.1522949.450592-3.3002741.2338077-1.7752118-.335683-3.2984152-1.1373857-4.7268168-2.1832698-.4416121-.3234474-.8752577-.6559386-1.3667936-1.0246048.2777669-.3412689.5396007-.6628543.8492338-1.0434902-2.003055-.4918209-3.745604-1.3400723-5.3290876-2.5761414-.1755296.2284879-.389033.4402183-.5125144.6955715-.0610769.1263466-.0140742.3862217.0839143.4952788 1.3614825 1.5097758 2.6605605 3.0887098 4.1359646 4.4790548 1.8062814 1.7020886 3.8967028 3.0341812 6.2117808 3.9734022 1.6339384.6628543 3.2782333 1.2999074 4.9044707 1.9803173.966873.4043092 1.8081402 1.0089111 2.5020263 1.8063579.2063335.2375317.3218484.3622823.6346681.3668042.3130852-.0045219.4286001-.1292725.6351992-.3668042.6941516-.7974468 1.5346221-1.4020487 2.5017607-1.8063579 1.6262374-.6804099 3.2702668-1.317463 4.9042052-1.9803173 2.3153435-.939221 4.405765-2.2713136 6.2123118-3.9734022 1.4748731-1.390345 2.7734199-2.969279 4.1354336-4.4790548.0974574-.1090571.14446-.3689322.0839143-.4952788zm-2.8359307 30.1614425c.2275776.298444.3646022.6692382.3646022 1.0714195 0 .0774039-.0066388.1532119-.0161987.2279559-.0039832.035377-.0209785.1303365-.0233685.1423062-.195977.9892277-1.2974847 1.9321726-3.0055119 1.9321726-3.0102919 0-5.9913731-2.2468422-6.6995989-5.9715411.7082258 1.1232881 2.9218632 1.8622165 5.1057587 1.8622165 3.9548586 0 6.965416-1.5962236 6.965416-4.434368 0-5.2030875-9.8578029-6.8288362-17.3245801-6.8288362-9.474081 0-19.3316184 2.778828-19.3316184 8.4253257 0 2.3354178 1.711745 4.3457923 5.5779094 4.3457923 6.6703882 0 7.5852131-9.2828869 14.1374309-9.2828869.9737774 0 2.2133718.2069425 2.2133718.5617771 0 .0295252 0 .1774172-.2360753.1774172-.2655515 0-.6787496-.147892-1.3282886-.147892-3.3053196 0-5.6666035 3.2815546-7.4667772 5.971807l-3.2171565 4.8777782c-1.1208929 1.6699035-2.2707309 2.4125557-3.6112349 2.4500607h11.4643896l5.1033688-8.3625513c1.2693361-2.1287414 1.7120105-2.6902524 2.9516049-3.7544901-1.0922133-1.9808493-3.7187832-2.6607272-5.7847739-2.6607272-5.4600045 0-9.8575374 4.7596773-12.8386186 4.7596773-.8558725 0-1.5346221-.3843597-1.5346221-1.3009713 0-2.8674037 6.5814284-5.1142459 12.8386185-5.1142459 6.9946266 0 10.2707355 2.8083532 10.2707355 5.6464977 0 1.4485974-.8558725 2.7493028-2.0659907 2.7493028-.7084914 0-.9740429-.413885-.9740429-.82777 0-.3843597.2360753-.5319858.5018924-.7094031.1768573-.0885756.2950277-.1774172.2950277-.2957841 0-.1181009-.0884287-.2069425-.3542457-.2069425-2.1544194 0-4.2204101 6.0013323-4.2204101 9.0464192 0 4.7301521 3.5121842 7.2725124 6.9948922 7.2725124 3.5711366 0 7.1422732-2.6016767 7.1422732-8.188858 0-1.7534253-.7098191-3.2262281-1.8941788-3.4331706" fill="#00a0af" fill-rule="evenodd"/></svg>