<svg height="259" viewBox="0 0 512 261" width="512" xmlns="http://www.w3.org/2000/svg"><g fill="none" fill-rule="evenodd"><path d="m358.962716 94.4490806h48.60249c7.535511 0 10.944849-3.600064 10.944849-7.9189719 0-4.8565798-4.126173-8.0942996-8.427184-9.5378318-16.149188-5.3884074-23.504033-7.7319555-29.605873-14.0262232-6.63801-6.8377838-9.686016-15.6509274-9.686016-25.7264311 0-17.6321314 9.50535-32.38304281 27.443712-36.15843456 3.053834-.7246882 9.377136-1.08118804 21.755654-1.08118804h16.685358v29.6829949h-26.773501c-6.282506 0-8.613677 3.4188919-8.613677 7.7377998 0 4.4942357 2.511837 7.9131276 8.07168 9.5319875 12.203681 3.600064 22.070363 6.4754397 28.702545 12.2320355 7.354845 6.2942677 10.944848 16.1944436 10.944848 26.8076191 0 22.8452112-17.040861 38.1396382-37.852391 38.1396382h-52.192494zm103.442385 64.2339144v17.988631h32.224222v28.782979h-32.224222v17.994476h47.443638v29.682994h-77.876657v-124.132075h77.876657v29.682995zm-175.234928-29.682995h30.389343c16.626158 0 32.712242 8.994316 38.972458 17.994476 6.254409-9.00016 22.346301-17.994476 38.966652-17.994476h30.389343v124.132075h-30.389343v-93.549064c-11.614501.543516-25.023443 8.818988-25.023443 26.088775v67.460289h-27.886417v-67.460289c0-17.269787-13.408942-25.545259-25.02925-26.088775v93.549064h-30.389343zm30.433018-99.3170051v17.9886313h32.224222v28.7829789h-32.224222v17.9944755h36.491507v29.6829944h-66.924525v-124.132075h66.925252v29.6829949zm-175.234927-29.6829949h30.389342c16.626159 0 32.712243 8.99431564 38.972459 17.9944755 6.254409-9.00015986 22.346301-17.9944755 38.966652-17.9944755h30.389342v124.132075h-30.389342v-93.5490641c-11.614501.5435161-25.023443 8.8189878-25.023443 26.0887752v63.9738029h-27.886418v-63.9738029c0-17.2697874-13.408941-25.5452591-25.02925-26.0887752v93.5490641h-30.389342zm-7.300937 129v124.132075h-30.816577v-47.671626h-27.1890189v47.671626h-30.8224659v-124.132075h30.8224659v47.67747h27.1890189v-47.67747zm-30.81862-52.5431504v-40.6566003c-16.6784507 6.4751348-25.0176761 20.6877052-26.8315754 40.6566003zm30.81862 47.6752254h-30.81862v-17.993628h-27.1908216v17.993628h-30.8186202v-38.5001696c0-59.1878754 37.1613784-85.6319054 88.8280618-85.6319054zm-135.067327 8.091258c7.19334747 0 10.792943-2.339771 10.792943-10.059266v-122.164067h30.5790311v122.164067c0 23.345199-14.3925385 39.694424-41.3719741 39.694424zm211.11292 23.705546c-19.472373 0-35.079422 16.582099-35.079422 35.92983 0 19.528988 15.607049 35.555621 35.079422 35.555621 19.11091 0 35.091083-16.026633 35.091083-35.555621 0-19.347731-15.980173-35.92983-35.091083-35.92983zm-.180732-30.579822c37.108281 0 66.503403 29.293482 66.503403 66.141291 0 37.029066-29.395122 66.509652-66.503403 66.509652-36.927549 0-66.130279-29.480586-66.130279-66.509652 0-36.847809 29.20273-66.141291 66.130279-66.141291z" fill="#2a393d"/><path d="m489.038831 63.7709503 20.809908-1.987473-20.772714-1.1701944c-.632294-4.012095-3.868151-7.1511879-7.922271-7.6712743l-1.989866-20.6920086-1.171604 20.8591793c-3.75657.8358531-6.639086 3.974946-7.104008 7.8755939l-21.274831 1.9317495 21.423606 1.1516198c.781069 3.5848813 3.682182 6.3896329 7.327171 7.0583154l1.934075 21.3235421 1.153007-21.2863931c3.81236-.6315335 6.862249-3.5848812 7.587527-7.3926566" fill="#e20000"/></g></svg>