<svg height="75" viewBox="0 0 75 75" width="75" xmlns="http://www.w3.org/2000/svg"><g fill="none" fill-rule="nonzero" transform="translate(10 28)"><path d="m27.5908267 17.3453121c1.02816 1.0207503 2.4302133 1.6518254 3.97656 1.6518254l24.4326133.0028625-5.2766933-16.09308488c-.72072-1.709647-2.4115467-2.90691512-4.4422934-2.90691512-2.02216 0-3.73856 1.23638829-4.4324 2.93897457l-1.75896 5.24229397-.0069066-7.91048061-8.5323467-.00438909c-1.54224 0-2.9286133.61523628-3.94968 1.63293325l.0029867-1.62587254h-8.7361867c-1.6271733 0-3.1070667.70931552-4.1421333 1.82414507v-1.83120578l-8.2338667.00725154c-3.55450667-.00305328-6.47024 2.83745295-6.47453333 6.59298953 0 1.73865314.74330666 3.31548239 1.83941333 4.48374429l-1.8564-.0030533v7.6498066l8.29584-.0015266c2.3309067-.0028624 4.64072-1.4405765 5.4435733-3.1631999l.02408-.070798c.9275467 1.915171 2.86328 3.2355245 5.1036534 3.2355245l8.7234933-.0015266v-1.6502988" fill="#fff"/><g fill="#0060a8"><path d="m1.28165333 17.6882338 6.99570667-.0072515c2.86216 0 5.18168-2.3640034 5.18168-5.2768342 0-2.91855575-2.31952-5.28274999-5.18168-5.28274999l-1.81682667.01011399c-.14317333 0-.25928-.12003214-.25928-.26773464 0-.14770251.11610667-.26792548.25928-.26792548l6.98301337.00152664.0028-2.23958217h-6.9873067c-1.35090667 0-2.45 1.12189022-2.45 2.50025611 0 1.37970169 1.09890667 2.49720282 2.45 2.49720282l1.82541333.02461709c1.63986667 0 2.96687997 1.35203133 2.96687997 3.02007733 0 1.669191-1.32682663 3.0242756-2.96687997 3.0242756h-7z"/><path d="m1.28445333 14.8984884h7c1.3552 0 2.45130667-1.1175011 2.45130667-2.4987294 0-1.3797017-1.09610667-2.49586705-2.45130667-2.49586705l-1.82541333-.02022799c-1.63706667 0-2.96538667-1.35355798-2.96538667-3.02580223 0-1.66766434 1.32832-3.02141315 2.96538667-3.02141315l6.9873067-.00152664-.0028-2.24816957h-6.98301337c-2.85917333 0-5.18168 2.36133183-5.18168 5.27702509s2.32250667 5.27836084 5.18168 5.27836084l1.80693334.0028625c.13738666 0 .25349333.114498.25349333.2591473 0 .1419776-.11610667.2562848-.25349333.2562848l-6.98581334.0057249z"/><path d="m18.8828267 15.4385376c-1.2137067 0-2.2078934-.9888816-2.2078934-2.2514136v-7.14429768c0-1.21463365.9941867-2.21362928 2.2078934-2.21362928l7.4672266.00133581v-2.24378048h-7.4672266c-2.4300267 0-4.3984267 2.00505201-4.3984267 4.48069104v7.11987139c0 2.4758299 1.9684 4.4837443 4.3984267 4.4837443l7.4360533.0030533-.0014933-2.2382464z"/><path d="m17.2102933 6.06744341c0-.94670818.7449867-1.71403606 1.6725334-1.71403606h7.4672266v2.24683373h-6.4334666c-.5153867 0-.52248.52268367-.52248.52268367h5.3672266v2.23671972h-7.5536533z"/><path d="m18.8828267 14.8942902c-.9247467 0-1.6753334-.7629388-1.6753334-1.7069754v-3.29506349h7.5536534v2.24129969h-5.3672267c.0070933.5268819.52248.5295535.52248.5295535h6.4022933l-.0014933 2.2281324z"/><path d="m31.58288 15.4328127c-1.2094133 0-2.1978133-1.0075829-2.1978133-2.2456887v-7.11987142c0-1.23925074.9813066-2.23824637 2.1920266-2.23824637h7.2324v-2.24225384h-7.2492c-2.4289066 0-4.3973066 2.00505201-4.3973066 4.48069104v7.11987139c0 2.4758299 1.9853866 4.4837443 4.4141066 4.4837443l7.2324.0030533v-10.55118765h-6.21544v2.23671972h4.0189334v6.07316823z"/><path d="m29.9004533 13.187124c0 .9486165.7505867 1.7201426 1.67664 1.7201426h4.51752v-5.01787774h-3.4951466v2.24416214h1.2971466l.0041067.5268819h-1.29136c-.2818667 0-.5125867-.2387285-.5125867-.5268819l-.0115733-5.01215289s-.0014933-.52115703.5183733-.53413348h6.2083467l-.0028-2.23538392-7.2324.00152664c-.9260533 0-1.67664.76732788-1.67664 1.71403606v7.11968059"/><path d="m45.6054667 4.32001208c.09744-.28510018.36232-.49062421.67536-.49062421.3132266 0 .58072.20552403.6755466.49062421l3.5108267 10.60309342h-5.1408l.0056-2.4943404h1.7178933l-.77336-2.3496911-2.5192533 7.5931301h-2.5914933z"/><path d="m51.17504 15.4328127h-5.8400533v2.2393914h8.8875733l-4.62224-13.98059557c-.4050667-1.36367197-1.7402933-2.3668659-3.3209867-2.3668659-1.58312 0-2.91424.99880484-3.3222933 2.36133183l-4.6646133 13.98632044h2.3268l4.5289066-13.59550038c.1838667-.45016823.6174934-.76732787 1.12728-.76732787.5069867 0 .94304.31715964 1.1285867.76446542z"/></g></g></svg>