<svg height="75" viewBox="0 0 75 75" width="75" xmlns="http://www.w3.org/2000/svg"><g fill="none"><path d="m61 38.787234c0-1.6595744-.1524621-3.2553191-.4356061-4.787234h-22.5643939v9.0638298h12.8939394c-.5662879 2.9148936-2.2651515 5.3829787-4.813447 7.0425532v5.893617h7.7755682c4.530303-4.0851064 7.1439394-10.0851064 7.1439394-17.212766z" fill="#4285f4"/><path d="m37.6736842 62c6.2526316 0 11.4947369-2.2022472 15.3263158-5.9775281l-7.5157895-6.2247191c-2.0631579 1.4831461-4.6947368 2.3820225-7.8105263 2.3820225-6.0210526 0-11.1368421-4.3370787-12.968421-10.1797753h-7.7052632v6.3820225c3.8105263 8.0674157 11.6210526 13.6179775 20.6736842 13.6179775z" fill="#34a853"/><path d="m26 41.9513185c-.5-1.4056796-.7954545-2.8965518-.7954545-4.4513185s.2954545-3.0456389.7954545-4.4513185v-6.0486815h-8.3181818c-1.7045455 3.1521298-2.6818182 6.7089249-2.6818182 10.5s.9772727 7.3478702 2.6818182 10.5l6.4772727-4.7281947z" fill="#fbbc05"/><path d="m37.5774156 23.8316498c3.3946449 0 6.4121071 1.2570146 8.8218859 3.681257l6.6006985-7.070707c-4.0023283-3.9955107-9.1990687-6.4421998-15.4225844-6.4421998-9.0104773 0-16.7846333 5.5443322-20.5774156 13.6251403l7.669383 6.3748597c1.8230501-5.8361392 6.9150175-10.1683502 12.9080326-10.1683502z" fill="#ea4335"/></g></svg>