<svg height="75" viewBox="0 0 75 75" width="75" xmlns="http://www.w3.org/2000/svg"><g fill="none" fill-rule="evenodd" transform="translate(19 14)"><path d="m.30617829 0h20.54038471v4.50912609h17.153437l-22.2385164 5.12891882 1.0571181-5.65092005-16.52573165 4.99138557z" fill="#ef8f14"/><g stroke="#1c1b1a" stroke-linecap="round" stroke-linejoin="round"><path d="m.30617829 0h20.54038471v4.50912609h17.153437l-22.2385164 5.12891882 1.0571181-5.65092005-16.52573165 4.99138557z" stroke-width="1.913856"/><path d="m4.88683091 35.0434741-4.63526077.0116099-.01907515-20.0057305" stroke-width="1.979497"/><path d="m.77853217 48c.84862225-.3581223 6.40658781-.5380765 6.90431607-7.7719687l-7.68284824.024113" stroke-width="1.979497"/></g><path d="m14.3504107 20.2127896c0-1.8307999-1.052682-3.9505089-3.374083-3.9505089-2.60841551-.0960054-3.54132329 1.9991441-3.6131878 3.9505089zm-6.9872708 1.5896701c0 2.1920479 1.38804967 3.9022829 3.7569168 3.9022829 2.7996105 0 3.5173684-1.734348 4.3074344-1.734348.3828338 0 .7656675.3371351.7656675.9395129 0 1.0355183-2.6084154 2.6251884-5.0970567 2.6251884-4.06788609 0-5.83876953-3.1552273-5.83876953-6.5515843 0-3.4686959 2.15371721-6.5515842 5.71899533-6.5515842 3.4699023 0 5.4798905 3.1552272 5.4798905 6.2385621 0 .7466091-.2630596 1.1319702-1.1724561 1.1319702z" fill="#1c1b1a"/></g></svg>