<svg height="75" viewBox="0 0 75 75" width="75" xmlns="http://www.w3.org/2000/svg"><g fill="none" fill-rule="evenodd"><path d="m51.287037 67.4052306h2.1682099c3.470679 0 3.9598766-2.8102682 3.9598766-4.4858237 0-1.1356322-.3796297-4.2704981-4.3935186-4.2704981h-1.7901234zm-5.5864197-13.4052107h9.1651234c6.0200618 0 8.1342593 4.4326437 8.1342593 8.9733333 0 5.51341-2.9290123 9.0266667-9.2191358 9.0266667h-8.0802469zm-16.1604938 0h15.2391975v4.5947893h-9.6527778v2.2163984h9.6527778v4.3236782h-9.6527778v2.2703448h9.6527778v4.5947893h-15.2391975zm-11.4972223 4.5947893h-5.0429012v-4.5947893h15.6728395v4.5947893h-5.0439815v13.4052107h-5.5859568z" fill="#e62b1e"/><path d="m38 2c-11.045102 0-20 8.7304122-20 19.498816 0 10.7699957 8.954898 19.5012039 20 19.5012039s20-8.7312082 20-19.5012039c0-10.7684038-8.954898-19.498816-20-19.498816m-3.7764898 17.1790236c1.4932653-.8271754 2.3432653-1.8583092 2.3432653-3.2639305 0-.95552-.592449-1.7323525-2.0091837-1.7323525-1.5208163 0-3.0416326.7012187-4.3024489 1.7568275-2.2918368 1.8849731-3.1167347 4.5467788-3.1167347 6.405884 0 1.7834914 1.2616326 2.8148242 3.0140816 2.8148242 2.5261224 0 4.4569388-1.6071918 4.9218367-2.5149557.0508164-.0998898.0508164-.1762996-.0524489-.2503215l-.412449-.2745976c-.077551-.0511388-.1551021 0-.2059184.074022-.592449.6264008-1.5191837 1.3057314-2.7826531 1.3057314-.8765306 0-1.3924489-.7541485-1.3924489-1.6316668 0-.7051985.105102-1.3560743.207551-1.5827168.9791837-.0756138 2.3691837-.3267313 3.787551-1.1067477m-1.1091837-3.7424864c.5942857 0 .6967347.453484.6967347.8556301 0 .8279714-.4116326 1.6836016-.825102 2.0596809-.7467347.7012187-1.9067347 1.0311338-2.342449 1.004271.384898-1.6314678 1.492449-3.919582 2.4708163-3.919582m14.6650204-.9778659c-.7983673 0-1.5967347.5004442-2.1383673.9035853-.2567347-.3778702-1.0559184-1.1789788-2.8083674-1.1789788-3.5818367 0-5.4618367 2.9121273-5.4618367 4.7198947 0 1.8338342.6442857 2.4636178 2.19 3.2177663v.048751c-1.39.575859-2.32 1.3065273-2.32 1.8841771 0 .5786448.2316327 1.0042711 1.0059184 1.5550581-.8242857.3293181-2.2410204.856625-3.2967347 1.6853924-.8767347.7010197-1.0059184 1.1049568-1.0059184 1.9329282 0 1.6851934 2.4734694 3.1405606 5.7985714 3.1405606 2.0857143 0 3.2708164-.3510074 4.3775511-.9043812 1.6748979-.8263795 2.01-1.9589951 2.01-2.8373094 0-.7776285-.4375511-1.7072806-2.01-2.5645026-1.8810204-1.028547-3.1942857-1.6559428-3.7093878-1.9329282-.232449-.1269516-.6432653-.4508972-.6432653-.7272856 0-.3770742.3332653-.8313541.8759184-1.0562058.0773469-.0260668.5665306-.0748178 1.1583673-.1504317 2.9883674-.3778701 4.4316327-3.41675 4.4316327-4.5965247 0-.5776498-.0267347-1.0319297-.1540817-1.3325942.127347-.1251608.3867347-.2250506.5667347-.2250506.1816327 0 .31.1504317.4383674.2753935.2057143.2007746.5148979.3762783.8240816.3762783.617551 0 1.0567347-.4266212 1.0816327-1.0790889-.024898-.5288988-.384898-1.1545038-1.2108164-1.1545038m-6.5959183 12.9876697c1.4683673.8295632 1.8808163 1.1284368 1.8808163 2.1830507 0 1.2830473-1.52 1.8087624-2.6026531 1.8087624-2.0589796 0-3.5791836-.8011086-3.5791836-2.6114628 0-1.3317983.8759183-2.0596809 1.9308163-2.6886685.465102.3030522 2.087551 1.1562946 2.3702041 1.3083182m-.1810204-6.0795507c-.5408164 0-.7716327-.3283232-.7716327-1.1813665 0-1.4324841-.0773469-1.9834701 1.0310204-3.9432611.4891837-.8799061.8240817-1.1805706 1.39-1.1805706.722449 0 .722449.551583.722449 1.5819209 0 1.9331271-1.054898 4.7232773-2.3718367 4.7232773" fill="#231f20"/></g></svg>