<svg height="75" viewBox="0 0 75 75" width="75" xmlns="http://www.w3.org/2000/svg"><path d="m15.1436382 14.25h40.4632206c.6312128 0 1.1431412-.5035854 1.1431412-1.125s-.5119284-1.125-1.1431412-1.125h-40.4632206c-.6317098 0-1.1436382.5035854-1.1436382 1.125s.5119284 1.125 1.1436382 1.125m20.7969868 30.0361865c-.1953929-.2627493-.5250559-.9196226-1.1818769-.9196226-.7880849-.0656873-1.0511139.8549382-2.1678598 2.564313-2.8241797 4.1413104-5.7149934 8.6120604-5.7149934 10.1248747 0 .7892508.7224529 1.447127 2.3637537 1.8407495 1.5781739.394124 4.0085617.3289381 4.0085617 1.3142481 0 .5270029-.9854819.7892508-1.5756689.7892508-1.7745688 0-5.3878355-.2622479-8.0812523-.2622479-2.7590487 0-5.5185985.2622479-8.2115142.2622479-.459424 0-1.3797749-.1975634-1.3797749-.8539353 0-1.053003 1.3146439-.9206255 2.8251818-1.2495636 1.5751678-.328938 3.3497366-.7225606 4.4664825-1.9736285l11.759149-13.8048694c.197397-.2642536.32816-.6578762.32816-.9868143 0-.5916874-.590688-1.1833748-.9849809-1.6441889l-13.0071589-16.8976897c-.461428-.5916874-1.4459079-.8549382-2.1017268-.98531-1.3146439-.2642536-3.0235807-.3951268-3.0235807-1.1843777 0-.723062.6588249-.9196226 1.7755708-.9196226 2.6929158 0 5.4524655.2617465 8.1463833.2617465 2.5606498 0 5.1894365-.2617465 7.7505873-.2617465.6568209 0 1.7735668.1308732 1.7735668 1.0525016 0 .9853099-1.0501118.9186197-3.2184727 1.0514987-1.3802759.0646845-2.6277847.2617465-2.6277847 1.2480593 0 .6593804.2630289 1.3157523.6568209 1.8407495l6.0431535 8.5478773c.6568209.9196226 1.8391988 2.9589385 2.6939177 2.9589385.066634 0 .262528-.0661888.329162-.0661888.327659-.1313747.6558189-.3946254.8532159-.7225606l5.9118895-9.4685028c.52706-.8544367 1.3812779-1.9726256 1.3812779-2.8927497 0-.9206255-1.2490119-1.3809382-1.7740679-1.4456227-1.5771718-.2642536-3.5491377-.3289381-3.6793996-1.0514987-.132266-1.0525016.9859829-1.0525016 1.7740678-1.0525016 2.3647558 0 4.7300126.2617465 7.0947684.2617465 2.1658558 0 4.2695866-.2617465 6.4384484-.2617465.394794 0 1.7720638.0656873 1.7720638.6568733 0 .9868143-1.4454068.7892508-3.4153687 1.447127-2.8251817.9206255-4.0075596 2.5638116-8.6729422 8.2841251l-5.7124885 7.1002489c-.3942929.4608141-.5916899.8554395-.5916899 1.3804368 0 .6563718.197397 1.0525015.5245549 1.4471269l12.2180719 15.7795008c1.2495129 1.5785017 2.8256828 2.1034989 4.4028547 2.3010623 1.7079348.2627494 2.8903127.3289381 2.8903127 1.1833748 0 .7225607-.5906879.9201241-1.1823779.9201241-2.8913147 0-5.8467585-.2622479-8.7365702-.2622479-2.9584498 0-5.9138935.2622479-8.8693372.2622479-.525056 0-1.1833799-.0646845-1.1833799-.8539353 0-.9868142 1.2490119-.9868142 3.3512397-1.2495636 1.1172469-.1318761 2.4970218-.1318761 2.4308888-1.1176874 0-.2642537-.26353-.9206255-.525056-1.2495636z" fill="#231f20" fill-rule="evenodd"/></svg>