<svg height="237" viewBox="0 0 288 237" width="288" xmlns="http://www.w3.org/2000/svg"><path d="m255.99 3.38c2.4 0 5.19.21 8.37.63s6.18 1.32 9 2.7 5.22 3.33 7.2 5.85 2.97 5.94 2.97 10.26c0 3.72-.87 7.77-2.61 12.15s-3.99 8.94-6.75 13.68-5.94 9.51-9.54 14.31-7.26 9.42-10.98 13.86c-8.76 10.44-18.66 21.12-29.7 32.04l-.72.72c-.48.48-.72.84-.72 1.08s.18.36.54.36c.48 0 1.59-.27 3.33-.81s3.78-1.2 6.12-1.98c.8775-.2925 1.780312-.593438 2.708437-.902813l1.89-.63c.961875-.320625 1.949063-.649687 2.961563-.987187 2.7-.9 5.31-1.74 7.83-2.52s4.8-1.44 6.84-1.98 3.6-.81 4.68-.81c.72 0 1.17.09 1.35.27s.27.57.27 1.17c0 .72-.24 1.23-.72 1.53s-1.47.63-2.97.99-3.69.87-6.57 1.53-6.72 1.71-11.52 3.15c-.6.24-1.14.39-1.62.45s-.96.21-1.44.45c-6.12 1.8-10.83 3.24-14.13 4.32s-5.61 2.22-6.93 3.42c-2.4 2.16-5.61 5.37-9.63 9.63s-8.67 9.15-13.95 14.67-10.98 11.43-17.1 17.73-12.45 12.6-18.99 18.9-13.11 12.36-19.71 18.18-12.96 10.95-19.08 15.39-11.91 7.98-17.37 10.62-10.23 3.96-14.31 3.96c-2.28 0-4.41-.75-6.39-2.25s-2.97-3.75-2.97-6.75c0-5.16 2.19-10.89 6.57-17.19s10.2-12.75 17.46-19.35 15.6-13.23 25.02-19.89 19.08-12.93 28.98-18.81 19.74-11.22 29.52-16.02 18.69-8.64 26.73-11.52c.36-.24.78-.54 1.26-.9.36-.24.78-.54 1.26-.9s.9-.72 1.26-1.08c1.8-1.68 4.5-4.47 8.1-8.37s7.62-8.49 12.06-13.77 9-10.98 13.68-17.1 8.94-12.18 12.78-18.18 6.99-11.76 9.45-17.28 3.69-10.32 3.69-14.4c0-1.56-.27-3.27-.81-5.13s-1.62-3.6-3.24-5.22-3.9-2.94-6.84-3.96-6.81-1.53-11.61-1.53c-4.92 0-10.65.81-17.19 2.43s-13.29 3.84-20.25 6.66-13.86 6.03-20.7 9.63-12.96 7.41-18.36 11.43-9.75 8.04-13.05 12.06-4.95 7.83-4.95 11.43c0 .96.12 1.98.36 3.06s.78 2.07 1.62 2.97 1.95 1.68 3.33 2.34 3.27.99 5.67.99c1.44 0 2.64-.21 3.6-.63s1.74-.63 2.34-.63c.48 0 .72.24.72.72v.9c0 .6-.81 1.44-2.43 2.52s-4.89 1.62-9.81 1.62c-3.72 0-6.93-.87-9.63-2.61s-4.05-4.35-4.05-7.83c0-3.96 1.71-8.22 5.13-12.78s7.98-9.09 13.68-13.59 12.24-8.82 19.62-12.96 15.06-7.8 23.04-10.98 15.96-5.73 23.94-7.65 15.45-2.88 22.41-2.88zm-52.38 118.44c-.48 0-.96.06-1.44.18s-.66.18-.54.18c-17.16 7.44-31.95 14.82-44.37 22.14s-22.98 14.31-31.68 20.97-15.69 12.93-20.97 18.81-9.39 11.1-12.33 15.66-4.92 8.4-5.94 11.52-1.53 5.22-1.53 6.3c0 1.92.63 3.03 1.89 3.33s2.43.45 3.51.45c2.76 0 6.51-1.41 11.25-4.23s10.05-6.51 15.93-11.07 12.09-9.78 18.63-15.66 12.99-11.88 19.35-18c15-14.4 31.14-30.78 48.42-49.14.36-.48.54-.84.54-1.08s-.24-.36-.72-.36zm45.36 11.88c.48 0 .87.21 1.17.63s.57.93.81 1.53.48 1.26.72 1.98c0 .36-.21.9-.63 1.62s-.96 1.44-1.62 2.16-1.41 1.35-2.25 1.89-1.68.87-2.52.99c-1.92 0-3.09-.63-3.51-1.89s-.63-2.07-.63-2.43.24-.9.72-1.62 1.14-1.44 1.98-2.16 1.74-1.35 2.7-1.89 1.98-.81 3.06-.81zm-144.9-28.44c.48 0 .72.18.72.54s-.24.78-.72 1.26l-.72.72c-1.44 1.44-2.76 2.34-3.96 2.7-.6.24-1.14.36-1.62.36h-90.18c-.12 0-.18-.18-.18-.54 0-.6.3-1.2.9-1.8s1.29-1.14 2.07-1.62 1.5-.87 2.16-1.17 1.05-.45 1.17-.45z" fill="#e20000"/></svg>