<svg height="323" viewBox="0 0 409 323" width="409" xmlns="http://www.w3.org/2000/svg"><path d="m47.3221977 250.417865c.2990663.139457.4645604.253038.4964823.340742.0638438.17541.0479633.404667-.0476412.687772l-2.5218328 6.579298c-.4024098.941051-.7410563 1.784402-1.0159397 2.530053-.2629529.641985-.5159503 1.2431-.7589923 1.803346-.2430419.560245-.3705281.892201-.3824586.995866-.0278914.059814-.0338566.111646-.0178956.155499-.0278914.059813-.0178957.155498.0299871.287055.0319219.087705.143568.121561.3349382.10157.1754093-.063844.304951-.185486.3886251-.364926.0438524-.01596.3068858-.384836.7891003-1.106625.4822145-.72179 1.0421379-1.571187 1.6797702-2.54819.6376324-.977004 1.2672842-1.975934 1.8889557-2.99679.6216714-1.020856 1.1158163-1.846311 1.4824348-2.476365l.3168009-.562261c.0278914-.059813.1176113-.017976.2691597.125511s.2672249.324862.3470296.544124c.0638438.175409.0539286.352833-.0297456.532273-1.7734401 2.631945-3.4173385 5.142248-4.9316952 7.530909-.6216714 1.020856-1.2612787 2.060655-1.918822 3.119398-.6575432 1.058743-1.2722418 2.064646-1.8440957 3.017708-.5718538.953062-1.0759542 1.819387-1.5123011 2.598975-.436347.779588-.7581055 1.430561-.9652756 1.952919-2.2192191 5.227615-4.3656868 10.416335-6.4394033 15.56616-2.0737164 5.149825-4.0638392 9.847101-5.9703684 14.091827-1.9065292 4.244727-3.7106017 7.78173-5.4122176 10.61101s-3.254061 4.499295-4.6573353 5.010045c-.3508186.127688-.7375493.156708-1.1601921.08706s-.7297299-.367586-.9212612-.893814c-.4309453-1.184013-.2610171-2.934357.5097849-5.251033.7708019-2.316676 1.8525201-4.87067 3.2451545-7.661982 1.3926343-2.791312 2.9427421-5.627525 4.6503232-8.508638s3.2826782-5.478113 4.7252912-7.790999c1.3868302-2.193261 2.6680601-4.199101 3.8436897-6.017521.5101059-.781603 1.0092487-1.559215 1.4974284-2.332838.4881797-.773622.9335147-1.494404 1.3360051-2.162346.4024903-.667941.7372271-1.249146 1.0042105-1.743613s.4423121-.83142.5259863-1.01086l5.1333854-13.116758c.1354264-.446585.1791982-.735655.1313154-.867212-.0478829-.131557-.1376027-.173394-.2691597-.125511-.0877047.031921-.1484853.103705-.1823419.215351-.0338566.111647-.1006024.235263-.2002375.370851-.4662536.765642-.9484681 1.487431-1.4466435 2.165369-.4423927.55831-.8917582 1.131575-1.3480966 1.719792-.4563383.588217-.8579015 1.019929-1.2046896 1.295134l-.4783451.323089c-.115596.091735-.2610986.169524-.4365079.233368s-.3069663.111726-.3946709.143648c-.131557.047883-.205316.049898-.2212769.006046-.0319219-.087705.0378066-.237238.2091854-.448599 1.6739661-1.950138 3.1485815-3.902211 4.4238461-5.856218 1.2752647-1.954007 2.3562168-3.725552 3.2428564-5.314634.8866395-1.589082 1.5779991-2.896026 2.0740788-3.920832.4960796-1.024806.7879718-1.553169.8756764-1.585091.5262279-.191532.938875-.217569 1.2379413-.078112zm-15.5331626 34.482185c-.0438523.015961-.0936698.083754-.1494526.203381-.0278914.059813-.0637632.0977-.1076156.113661-3.4714281 4.243195-6.1983744 8.178173-8.1808388 11.804937-1.9824645 3.626763-3.4537349 6.781913-4.4138113 9.465449-.9600764 2.683535-1.5435386 4.832702-1.7503866 6.447499s-.2783501 2.5099-.2145064 2.685309c.1276875.350819.3021697.523205.5234466.51716.2212768-.006046.3757676-.02503.4634722-.056952.4385233-.159609 1.098122-1.008039 1.9787964-2.545288.8806743-1.537249 1.8549379-3.431362 2.9227909-5.68234s2.1456212-4.67938 3.2333046-7.285207 2.0657762-5.035197 2.9342785-7.288109c.8685023-2.252913 1.5766292-4.161899 2.1243806-5.726959s.7897052-2.435295.7258614-2.610704c-.0159609-.043852-.0458675-.057798-.0897199-.041837zm109.3990589-68.646577c.299066.139457.46456.253038.496482.340742.063844.17541.047963.404667-.047641.687772l-2.521833 6.579298c-.40241.941051-.741056 1.784402-1.01594 2.530053-.262953.641985-.51595 1.2431-.758992 1.803345l-.131959.308753c-.157455.375144-.240955.604182-.2505.687114-.027891.059813-.033856.111646-.017895.155499-.027892.059813-.017896.155498.029987.287055.031922.087705.143568.121561.334938.10157.175409-.063844.304951-.185486.388625-.364926.043852-.015961.306886-.384836.7891-1.106626.482215-.721789 1.042138-1.571186 1.679771-2.548189.637632-.977004 1.267284-1.975934 1.888955-2.99679.621672-1.020856 1.115817-1.846311 1.482435-2.476366l.316801-.56226c.027891-.059814.117611-.017976.26916.125511.151548.143487.267225.324862.347029.544123.063844.17541.053929.352834-.029745.532274-1.77344 2.631945-3.417339 5.142247-4.931695 7.530909-.621672 1.020856-1.261279 2.060655-1.918822 3.119398-.657544 1.058743-1.272242 2.064646-1.844096 3.017708s-1.075954 1.819387-1.512301 2.598975c-.436347.779587-.758106 1.430561-.965276 1.952919-2.219219 5.227615-4.365687 10.416335-6.439403 15.56616-2.073717 5.149825-4.063839 9.847101-5.970369 14.091827-1.906529 4.244727-3.710601 7.78173-5.412217 10.61101s-3.254061 4.499295-4.657336 5.010045c-.350818.127688-.737549.156707-1.160192.08706-.422642-.069648-.729729-.367586-.921261-.893814-.430945-1.184013-.261017-2.934357.509785-5.251033s1.85252-4.87067 3.245155-7.661982c1.392634-2.791313 2.942742-5.627525 4.650323-8.508638s3.282678-5.478113 4.725291-7.791c1.38683-2.19326 2.66806-4.1991 3.84369-6.01752.510106-.781603 1.009248-1.559215 1.497428-2.332838.48818-.773622.933515-1.494404 1.336005-2.162346.40249-.667941.737227-1.249146 1.004211-1.743613.266983-.494467.442312-.83142.525986-1.01086l5.133385-13.116759c.135427-.446584.179199-.735654.131316-.867211s-.137603-.173394-.26916-.125512c-.087705.031922-.148485.103706-.182342.215352-.033856.111646-.100602.235263-.200237.370851-.466254.765642-.948468 1.487431-1.446644 2.165369-.442392.55831-.891758 1.131574-1.348096 1.719792-.456339.588217-.857902 1.019929-1.20469 1.295134l-.478345.323088c-.115596.091736-.261099.169525-.436508.233369s-.306966.111726-.394671.143648c-.131557.047883-.205316.049898-.221277.006046-.031922-.087705.037807-.237238.209186-.448599 1.673966-1.950138 3.148581-3.902211 4.423846-5.856218 1.275264-1.954007 2.356217-3.725552 3.242856-5.314634.88664-1.589082 1.577999-2.896026 2.074079-3.920832s.787972-1.55317.875676-1.585091c.526228-.191532.938875-.217569 1.237942-.078112zm-15.533163 34.482185c-.043852.015961-.09367.083754-.149453.203381-.027891.059813-.063763.0977-.107615.113661-3.471428 4.243194-6.198375 8.178173-8.180839 11.804937-1.982464 3.626763-3.453735 6.781913-4.413811 9.465448-.960077 2.683536-1.543539 4.832703-1.750387 6.4475s-.27835 2.5099-.214506 2.685309c.127687.350819.302169.523205.523446.517159.221277-.006045.375768-.025029.463473-.056951.438523-.159609 1.098122-1.008039 1.978796-2.545288s1.854938-3.431363 2.922791-5.68234c1.067853-2.250978 2.145621-4.67938 3.233304-7.285207 1.087684-2.605827 2.065777-5.035197 2.934279-7.288109.868502-2.252913 1.576629-4.161899 2.12438-5.726959.547752-1.56506.789706-2.435295.725862-2.610704-.015961-.043853-.045868-.057798-.08972-.041837zm-3.881039-39.521016c1.674691.507849 3.058417 1.307832 4.151178 2.399949 1.09276 1.092116 1.910477 2.383664 2.453149 3.874643.798047 2.192616.944314 4.709368.438803 7.550256-.505512 2.840889-1.667882 5.684961-3.487109 8.532217-1.819227 2.847257-4.288379 5.546189-7.407457 8.096796-3.119077 2.550608-6.915084 4.63992-11.388021 6.267936-.219262.079805-.550169.125753-.992723.137844-.442554.012092-.767577-.266903-.975069-.836983-.17557-.482375-.198706-1.194048-.069405-2.135019.1293-.940971.538562-2.30664 1.227785-4.097007-.015961-.043853-.009996-.095685.017896-.155499.055783-.119626.075694-.201366.059733-.245218l-.023942-.065778c-.043852.01596-.251103.265209-.621752.747746-.370649.482536-.855886 1.093688-1.455712 1.833453-.599826.739766-1.271395 1.555306-2.014708 2.446621-.743313.891314-1.487634 1.745749-2.2329627 2.563304-.7453284.817555-1.4896895 1.535435-2.2330832 2.15364-.7433937.618204-1.3782045 1.023072-1.9044324 1.214603-.4385232.15961-.9129585.220552-1.423306.182825-.5103474-.037726-.8932087-.407407-1.1485837-1.109044-.3192188-.877047-.29963-2.051225.0587664-3.522534.3583964-1.47131.9749089-3.086228 1.8495375-4.844754s1.9286567-3.569933 3.1620843-5.43422 2.5805168-3.620959 4.0412668-5.270015c1.46075-1.649057 2.967408-3.10376 4.519974-4.364111 1.552566-1.26035 3.074338-2.161862 4.565317-2.704534.526228-.191531 1.029563-.275406 1.510003-.251626.480441.02378.824408.320711 1.0319.890791.031922.087705.048931.304991.051026.65186.002096.346868-.057596.728642-.179077 1.145319-.121481.416678-.287821.812437-.499022 1.187277-.211201.374841-.514136.634085-.908807.777734-.306966.111726-.492371.079885-.556215-.095524-.063844-.17541.067632-.496402.394429-.962978.326797-.466575.394429-.962977.202898-1.489205-.127687-.350819-.476571-.422482-1.046651-.21499-.877047.319219-1.891535 1.011263-3.043465 2.076133-1.15193 1.064869-2.320747 2.322116-3.506453 3.771741s-2.346463 3.001908-3.482271 4.656849c-1.1358074 1.654941-2.1141418 3.264982-2.9350029 4.830122-.8208611 1.565141-1.4394291 2.969745-1.855704 4.213813-.416275 1.244067-.5126859 2.173067-.2892327 2.787.1117266.306966.3649253.388625.7595962.244976.4385232-.159609 1.1071906-.676123 2.0060022-1.549542.8988115-.873418 1.9480432-2.049893 3.1476942-3.529425 1.199652-1.479532 2.521832-3.202307 3.966541-5.168325s2.910296-4.113451 4.396761-6.442299c.239092-.434654.468229-.828438.68741-1.181352s.438402-.569274.657664-.649079c.306966-.111726.564195.117451.771687.687531.095766.263114.059975.57411-.107374.93299-.757097 1.46744-1.462362 2.940846-2.115795 4.420216-.541866 1.240118-1.073737 2.57592-1.595613 4.007408-.521875 1.431488-.922189 2.719408-1.200942 3.86376-.055782.119626-.081659.253199-.077628.400716-.051752.267145-.037726.510348.042079.72961.111726.306966.364925.388625.759596.244976 3.902856-1.420523 7.131806-3.191705 9.686849-5.313543 2.555043-2.121839 4.515984-4.375074 5.882823-6.759704 1.366839-2.384631 2.187458-4.7691 2.461858-7.153409.274401-2.384308.05248-4.56314-.665763-6.536494-.526711-1.447127-1.284614-2.710783-2.273709-3.790969s-2.196404-1.907133-3.621926-2.480841c-1.425523-.573708-3.053298-.850325-4.883327-.829851-1.830028.020475-3.819424.421755-5.968187 1.203841-2.718844.989579-5.361753 2.59712-7.928727 4.822624-2.5669732 2.225505-4.9693796 4.80082-7.2072191 7.725946s-4.2334031 6.072456-5.9866907 9.441991c-1.7532876 3.369534-3.1716774 6.704083-4.2551692 10.003647s-1.7543768 6.436536-2.012655 9.410916-.0043547 5.514026.7617704 7.618937c.4788282 1.31557 1.1439885 2.426751 1.9954809 3.333543s1.9361519 1.567318 3.2539784 1.981578c1.3178265.414259 2.8568493.549364 4.6170685.405312 1.7602191-.144051 3.7804891-.631061 6.0608098-1.461029 3.376629-1.228993 6.684255-3.227456 9.922878-5.995391 3.238624-2.767935 6.553828-6.11002 9.945612-10.026257l11.269405-13.040821.023942.065778c.015961.043853.042885.083715.080772.119587.037887.035871.064811.075734.080772.119586.127687.350818.091896.661815-.107374.93299l-10.617666 12.58013c-2.200033 2.687889-4.515742 5.194403-6.947128 7.519542-2.084598 2.049934-4.410424 4.051098-6.977478 6.003493s-5.1661509 3.40742-7.7972902 4.365077c-2.4995824.909773-4.721178 1.457644-6.6647869 1.643613-1.943609.185969-3.6261595.065858-5.0476515-.360332-1.4214921-.42619-2.5918812-1.11759-3.5111674-2.0742-.9192861-.956609-1.6343042-2.136551-2.1450543-3.539826-.8299689-2.28032-1.0749848-5.03427-.7350477-8.261849s1.1144071-6.62573 2.3234102-10.194454c1.209003-3.568724 2.7897835-7.17344 4.7423413-10.814149s4.1294556-7.040271 6.5306934-10.198685 4.9610774-5.915184 7.6795187-8.270311c2.7184414-2.355126 5.4590104-4.035459 8.2217064-5.040998 2.894253-1.053422 5.475656-1.670175 7.744207-1.850259s4.240173-.016202 5.914863.491647zm-47.0102073-1.550041c.3329229.027811.5632282.217126.6909157.567944.1276875.350819.0799657.765481-.1431653 1.243987-3.9844372 8.700815-7.4010913 16.164494-10.2499622 22.391039-2.848871 6.226544-5.1887242 11.361497-7.0195597 15.404857-.6102785 1.347787-1.1710843 2.585141-1.6824174 3.712063l-.3742237.824486c-.8515442 1.875485-1.5515782 3.412771-2.100102 4.611857-.9403265 2.055578-1.4941639 3.262806-1.6615122 3.621685-.0717437.075775-.135507.173475-.1912897.293102-.0836742.179439-.1015698.334938-.053687.466495.0957656.263114.2313531.362749.4067624.298905.2631139-.095766.8021993-.627193 1.6172562-1.594281.8150569-.967089 1.7566326-2.166457 2.8247272-3.598106s2.2368318-2.962006 3.5062118-4.591071c1.26938-1.629064 2.4929327-3.179372 3.6706581-4.650924 1.1777254-1.471551 2.2508581-2.718802 3.2193981-3.741754s1.7159239-1.630193 2.2421518-1.821725c.4823755-.17557.8123158-.121843.9898209.161182s.290199.490316.3380818.621873c.1596094.438523.0402245 1.202069-.3581548 2.290638-.3983793 1.08857-.9292829 2.324697-1.5927109 3.708382-.6634279 1.383686-1.3946094 2.854109-2.1935443 4.411269-.7989348 1.55716-1.5301163 3.027583-2.1935442 4.411268-.663428 1.383686-1.1873588 2.60486-1.5717924 3.663522-.3844336 1.058663-.5048261 1.785329-.3611777 2.18.0319219.087705.0857699.167429.1615441.239173s.2671445.051752.5741107-.059974c.6139325-.223454 1.3753024-.724047 2.2841097-1.50178.9088073-.777734 1.8654169-1.69702 2.8698287-2.757859 1.0044119-1.060839 2.0367151-2.181491 3.0969098-3.361956 1.0601946-1.180465 2.029702-2.303093 2.9085221-3.367881.8788201-1.064789 1.6400692-1.975047 2.2837473-2.730774.6436781-.755726 1.0731327-1.247251 1.2883638-1.474574.0757742.071744.1376027.173394.1854855.304951.0798047.219262.0997962.410632.0599744.574111-.0398219.163479-.0956046.283105-.1673483.35888-.0717437.075774-.2072507.249248-.4065209.520423-.4145012.498498-.9824454 1.189413-1.7038324 2.072747s-1.5434168 1.865376-2.4660892 2.946125c-.9226724 1.08075-1.9071331 2.196404-2.9533821 3.346963-1.0462489 1.150559-2.1014859 2.242312-3.1657111 3.275259-1.0642251 1.032948-2.1095469 1.947276-3.1359655 2.742986-1.0264185.79571-1.978151 1.353174-2.8551975 1.672393-.2631139.095765-.6089749.134741-1.0375829.116925-.4286081-.017815-.7466582-.311762-.9541504-.881842-.1915313-.526228-.0970954-1.392433.2833077-2.598613.3804032-1.20618.9351677-2.649639 1.6642936-4.330375.7291259-1.680737 1.597749-3.523985 2.6058692-5.529745 1.0081203-2.005759 2.0301862-4.041425 3.0661979-6.106998.0557827-.119627.103585-.261179.1434069-.424658.0557827-.119627.1006024-.235263.134459-.346909s.034824-.211321.0029021-.299026-.0917351-.115596-.1794398-.083674c-.1754093.063844-.6985337.639123-1.5693734 1.725838-.8708396 1.086715-1.9230135 2.425661-3.1565217 4.016839-1.2335081 1.591178-2.5626611 3.328906-3.987459 5.213185-1.4247978 1.884278-2.78684 3.633977-4.0861267 5.249097-1.2992866 1.615119-2.4501282 2.989977-3.4525248 4.124575-1.0023967 1.134598-1.7009304 1.773721-2.0956013 1.917369-.1754093.063844-.3847155.102779-.6279185.116805-.243203.014027-.4525897-.220148-.62816-.702524-.0798047-.219261-.0719048-.470445.0236998-.75355 3.0998129-7.037974 5.8420357-13.250532 8.2266683-18.637676 2.3846327-5.387143 4.4704406-10.094415 6.2574238-14.121814 1.7869832-4.0274 3.2990428-7.445704 4.5361788-10.254912s2.2730671-5.14789 3.1077934-7.016047c.8347262-1.868157 1.4961389-3.325601 1.9842381-4.372333.4880992-1.046733.8835764-1.836276 1.1864316-2.36863s.5260266-.874305.669514-1.025854c.1434874-.151548.2810096-.251264.4125665-.299146.2352226-.035953.5192953-.040024.8522182-.012213zm-25.5600266 32.619224c.1196266.055783.2542064.118538.4037396.188267.1495331.069728.264202.214223.3440067.433485l.0044024.028803c.0073372.048004.0238459.156015.0495262.324031.0359524.235222.0210796.501359-.0446184.79841-.0656979.297051-.1752482.610063-.3286508.939036s-.4194589.58721-.7981689.774711l-.1315569.047883c-.3508186.127687-.6139728.086898-.7894626-.122368s-.2931414-.327844-.3529546-.355736l-.1296203-.356129-.0059068-.014722-.0081214-.02382c-.01328-.036486-.0329194-.090445-.0598535-.164446-.0718242-.197335-.1008038-.447511-.0869386-.750527.0138652-.303017.1124524-.612039.2957616-.927066s.5161516-.560326.9985272-.735896l.1315569-.047883c.131557-.047883.3010011-.059894.5083322-.036033zm146.7968949-42.442065c.291086.117531.500473.351706.62816.702524.127688.350819.071985.743555-.167107 1.178209l-5.097835 11.986433-.083674.17944c-.055783.119626-.067714.223292-.035792.310996.031922.087705.069809.123577.113662.107616.087704-.031922.130549-.084762.128534-.158521-.002016-.073759.084681-.142561.260091-.206405.087704-.031921.18738-.030954.299026.002903.111646.033856.215352.182341.311117.445455.079805.219262.071905.470445-.023699.753551-.095605.283105-.39451.689868-.896716 1.220287-.043853.015961-.147478.140585-.310876.373873-.163399.233288-.355696.48951-.576892.768665-.221197.279155-.450373.536385-.687531.771688-.237157.235303-.44344.384876-.618849.44872-.131557.047883-.326918.056911-.586082.027085s-.484511-.307853-.676043-.834081c-.127687-.350818.038533-1.156242.49866-2.41627.460127-1.260029.981035-2.591841 1.562724-3.995438.581688-1.403596 1.118557-2.691556 1.610606-3.86388s.714132-1.824264.66625-1.955821c0 0-.029907-.013946-.08972-.041837-.043853.01596-.137522.099715-.28101.251264-.231192.18347-.620784.64807-1.168777 1.393802-.547993.745731-1.22053 1.660946-2.017611 2.745646-.797081 1.084699-1.661915 2.256136-2.594502 3.514311-.932588 1.258174-1.865176 2.516348-2.797763 3.774523-.932588 1.258174-1.823338 2.426628-2.672252 3.505363-.848913 1.078734-1.56631 1.973031-2.15219 2.68289.015961.043853.002015.073759-.041837.08972l-.263114.095766c-.087705.031922-.257149.043933-.508333.036033-.251183-.0079-.440619-.187259-.568306-.538078-.095766-.263114-.046029-.604017.149211-1.02271 1.832931-3.696492 3.25644-6.573534 4.270525-8.631126 1.014086-2.057593 1.758205-3.594802 2.232359-4.611627.474153-1.016826.767013-1.644865.878578-1.884118.111566-.239253.173314-.410712.185244-.514378l-.047883-.131557c-.031922-.087704-.113661-.107615-.245218-.059733-.043852.015961-.378629.460611-1.004331 1.333949s-1.386911 1.920151-2.283627 3.140438-1.821323 2.500387-2.773821 3.840301c-.952499 1.339914-1.747564 2.498372-2.385197 3.475376l-6.641452 9.792043c-.099635.135588-.207251.249249-.322847.340984-.215231.227323-.498256.404828-.849074.532515-.131557.047883-.319945.041958-.565163-.017775-.245219-.059732-.431672-.265008-.559359-.615827l-.071824-.197335c-.047883-.131557-.051914-.279075-.012092-.442554s.215151-.500432.525987-1.01086c.2112-.374841.496119-.888251.854757-1.540232.358638-.65198.803933-1.509317 1.335885-2.57201.531951-1.062693 1.182441-2.379593 1.951469-3.950698.769029-1.571106 1.655588-3.433298 2.659677-5.586575l3.597989-7.715911c-.015961-.043852-.009996-.095685.017895-.155499.055783-.119626.067714-.223292.035792-.310996-.031922-.087705-.091735-.115596-.17944-.083674-.043852.015961-.173394.137602-.388625.364925l-9.508843 12.942856c-.026432.055936-.059086.110356-.097963.16326l-.188087.221852-.218433.298572-.100082.078153c-1.7096 2.0209-3.09213 3.664824-4.147589 4.931772-1.157815 1.389811-2.109386 2.493495-2.854715 3.31105-.745328.817555-1.360147 1.413794-1.844458 1.788715-.48431.374921-.989579.658147-1.515807.849678-.877046.319219-1.49114-.003547-1.842281-.968298-.143648-.394671-.16376-.995706-.060336-1.803104.103424-.807399.467826-2.193987 1.093205-4.159763-.01596-.043853-.009995-.095685.017896-.155499.055783-.119626.075694-.201366.059733-.245218l-.023942-.065778c-.043852.015961-.251103.265209-.621751.747746-.370649.482537-.855887 1.093688-1.455713 1.833454-.599825.739765-1.271395 1.555305-2.014708 2.44662-.743313.891314-1.487634 1.745749-2.232962 2.563304-.745329.817555-1.48969 1.535435-2.233084 2.15364-.743393.618204-1.378204 1.023072-1.904432 1.214604-.438523.159609-.912959.220551-1.423306.182825s-.893209-.407408-1.148584-1.109045c-.319219-.877047-.29963-2.051225.058767-3.522534.358396-1.47131.974909-3.086228 1.849537-4.844754.874629-1.758526 1.928657-3.569932 3.162084-5.43422 1.233428-1.864287 2.580517-3.620959 4.041267-5.270015 1.46075-1.649057 2.967409-3.10376 4.519974-4.364111 1.552566-1.26035 3.074339-2.161861 4.565318-2.704533.526228-.191532 1.029562-.275407 1.510003-.251627.480441.023781.824407.320711 1.031899.890791.031922.087705.048931.304991.051027.65186s-.057597.728642-.179078 1.145319c-.12148.416678-.287821.812437-.499022 1.187277-.2112.374841-.514136.634085-.908807.777734-.306966.111726-.492371.079885-.556215-.095524-.063844-.17541.067633-.496402.394429-.962978.326797-.466575.39443-.962977.202898-1.489205-.127687-.350819-.476571-.422482-1.046651-.214989-.877047.319218-1.891535 1.011262-3.043464 2.076132-1.15193 1.064869-2.320748 2.322116-3.506454 3.771741s-2.346463 3.001908-3.48227 4.656849c-1.135808 1.654941-2.114143 3.264982-2.935004 4.830122-.820861 1.565141-1.439429 2.969745-1.855704 4.213813-.416275 1.244067-.512685 2.173067-.289232 2.787.111726.306966.364925.388625.759596.244976.438523-.159609 1.107191-.676123 2.006002-1.549542.898812-.873418 1.948043-2.049893 3.147695-3.529425 1.199651-1.479532 2.521831-3.202307 3.96654-5.168325s2.910296-4.113451 4.396761-6.442299c.239092-.434654.468229-.828438.68741-1.181352s.438402-.569274.657664-.649079c.306966-.111726.564195.117451.771688.687531.095765.263114.059974.57411-.107374.93299-.757098 1.46744-1.462363 2.940846-2.115795 4.420216-.541867 1.240118-1.073738 2.575921-1.595613 4.007408-.521876 1.431488-.92219 2.719408-1.200942 3.86376-.055783.119626-.081659.253199-.077629.400717-.051752.267144-.037726.510347.042079.729609.111726.306966.364925.388625.759596.244976.175409-.063843.367747-.18351.577013-.359s.614819-.596238 1.21666-1.262245 1.49364-1.661027 2.675396-2.98506c.895906-1.00377 2.05696-2.318113 3.483162-3.94303l.713114-.93794c1.243459-1.648434 2.442266-3.288562 3.59642-4.920384 1.442694-2.039777 2.757861-3.884153 3.945502-5.533129 1.18764-1.648976 2.245779-3.039755 3.174417-4.172337.928638-1.132583 1.677996-1.80262 2.248077-2.010113.087704-.031921.290038-.055903.607-.071945.316962-.016041.549282.247033.696961.789221.095766.263114.12277.576086.081014.938916-.041757.362829-.213015.983855-.513774 1.863078-.30076.879223-.809737 2.10737-1.526933 3.684441-.717195 1.577071-1.71133 3.689478-2.982403 6.337223-.852702 1.750545-1.292999 2.655725-1.32089 2.715538 0 0 .029906.013946.08972.041837.043852-.015961.274036-.236311.690553-.661049.416516-.424739.873862-.976077 1.372038-1.654014l9.110564-12.62753c.18734-.167509.352754-.327038.496241-.478586.143488-.151549.280002-.288144.409544-.409786.129542-.121641.282017-.214384.457426-.278228.087705-.031922.276093-.025997.565163.017775.289071.043772.521391.306845.696962.789221.031922.087705.00012.409664-.095404.965879s-.513854 1.589969-1.254991 3.101262l-4.5126 9.091696c-.027891.059813-.047802.141553-.059733.245218-.02386.207331-.02781.332923-.011849.376776l.023941.065778c.015961.043852.08972.041837.221277-.006046s.247153-.139618.346788-.275205l9.343691-13.010351c.282945-.450615.58185-.857377.896716-1.220287.271014-.346949.528082-.663992.771205-.951128.243122-.287136.474314-.470606.693576-.550411.131557-.047882.342878-.013058.633964.104472zm37.066541-22.392964c.17557.482375.149775.889057-.077387 1.220045-.227161.330988-.539045.667982-.935651 1.010981-.396605.342999-.815137.693979-1.255595 1.052939s-.816105.793654-1.12694 1.304082c-.498176.677938-.805868 1.708669-.923077 3.092193-.117208 1.383524-.181536 2.946448-.192983 4.688772-.011448 1.742323-.053769 3.570377-.126964 5.484159-.073196 1.913783-.325831 3.743892-.757905 5.490326-.432075 1.746435-1.098446 3.292592-1.999111 4.638471-.900666 1.345879-2.184193 2.322076-3.850581 2.928592-.263114.095765-.590032.152676-.980753.170733s-.79043-.022692-1.199127-.122247c-.408697-.099554-.78652-.284838-1.133469-.555852s-.608209-.647709-.783779-1.130084c-.175571-.482376-.265411-.933878-.269522-1.354505-.004111-.420628.123335-.889138.382337-1.405531.259003-.516393.673464-1.151446 1.243384-1.905157.569919-.753712 1.37103-1.690894 2.403333-2.811546l.041837-.08972c.043853-.015961.072752-.038894.086697-.068801.013946-.029907.064771-.060821.152476-.092743.175409-.063844.287055-.029987.334938.10157s.043933.257149-.01185.376775c-.282944.450615-.594788.924163-.93553 1.420646-.340742.496482-.633642.987966-.878699 1.474453-.245058.486487-.431309.963985-.558755 1.432495-.127446.468511-.119345.900101.024304 1.294772.239414.657785.688013.866971 1.345798.627556.992643-.410953 1.850625-1.157773 2.573946-2.240457.723322-1.082685 1.321012-2.305874 1.79307-3.669568.472057-1.363694.853388-2.806105 1.14399-4.327232.290603-1.521127.499506-2.92561.626711-4.21345.127204-1.287839.204631-2.37133.232281-3.250472s.025514-1.362566-.006408-1.45027c-.191531-.526228-.396928-.74944-.616189-.669635-.131557.047883-.261099.169525-.388626.364925-.127526.195401-.219181.352915-.274963.472541l-6.001564 9.708128c-.721306 1.156443-1.545271 2.337835-2.471893 3.544177-.429235.558807-.86256 1.025861-1.299976 1.401162-.680279.807678-1.441971 1.73269-2.284106 2.771296-1.37103 1.690893-2.830773 3.376829-4.379228 5.057807-1.548455 1.680979-3.089977 3.210449-4.624567 4.58841-1.534589 1.377962-2.937743 2.298377-4.20946 2.761244-.57008.207492-1.184053.294391-1.841919.260695-.657865-.033695-1.146407-.489066-1.465626-1.366113-.207492-.57008-.280445-1.21396-.218858-1.931638.061587-.717679.315512-1.555024.761774-2.512036.446262-.957013 1.099815-2.026719 1.960659-3.209119s1.964851-2.515381 3.31202-3.998943c-.015961-.043852-.009996-.095685.017896-.155499.055782-.119626.059732-.245218.01185-.376775-.047883-.131557-.247234-.133491-.598053-.005804-.175409.063844-.442513.148646-.801312.254408-.358799.105761-.718606.174643-1.07942.206645-.360814.032003-.701718-.017734-1.02271-.149211-.320993-.131476-.553313-.39455-.696962-.789221-.207492-.57008-.110033-1.325646.292377-2.266697s1.013118-1.957917 1.832125-3.050597 1.792504-2.204344 2.920493-3.334992c1.127988-1.130648 2.316797-2.196525 3.566427-3.197631s2.48733-1.898547 3.713099-2.692321c1.22577-.793775 2.342956-1.374214 3.351559-1.741315.350819-.127688.694665-.240422 1.031538-.338203.336872-.097781.660807-.128776.971804-.092984.310997.035791.59112.157312.840368.364563.249249.20725.461659.552063.637229 1.034439.111727.306966-.003789.671811-.346547 1.094534-.557988.650046-1.07414 1.210372-1.548454 1.680979-.38661.438684-.774228.840489-1.162853 1.205414s-.670642.57931-.846052.643154c-.015961-.043853-.137562-.03684-.364804.021039-.227242.057878-.412688-.110518-.556336-.505189-.095766-.263114-.02906-.523285.200117-.780514.229177-.25723.510186-.508494.843029-.753792.332842-.245299.617842-.4856.854999-.720903s.323814-.44066.25997-.616069c-.063843-.175409-.227322-.215231-.490436-.119465-.394671.143648-1.015536.518609-1.862596 1.124884-.847059.606274-1.78678 1.333182-2.819164 2.180724-1.032384.847543-2.077706 1.761871-3.135966 2.742986s-2.002898 1.93329-2.833916 2.856526-1.486627 1.782629-1.966826 2.578177c-.480199.795549-.648474 1.390659-.504826 1.78533.063844.175409.218375.29298.463593.352713.245218.059732.674794-.022128 1.288726-.245581.394671-.143648.849115-.39596 1.363332-.756936.514217-.360975 1.017471-.71796 1.509761-1.070955.492291-.352995.929766-.686039 1.312426-.999131.38266-.313093.683621-.509541.902883-.589346.131557-.047883.301001-.059894.508332-.036033s.406762.298905.598294.825133c.111726.306967-.225026.814412-1.010257 1.522336-.785231.707925-1.959046 1.917329-3.521447 3.628214-1.127908 1.403758-2.118293 2.7078-2.971157 3.912126-.753228 1.068739-1.396826 2.097575-1.930792 3.086509-.533967.988934-.721146 1.702663-.561536 2.141186.079804.219262.260292.47637.541463.771325.28117.294956.750648.322726 1.408433.083312s1.452044-.751978 2.382777-1.537692c.930734-.785714 1.931196-1.720961 3.001386-2.805741s2.142356-2.232356 3.216496-3.442728 2.08351-2.359924 3.028108-3.448654c.404642-.466384.784233-.907703 1.138773-1.323955.017569-.02471.039265-.052676.062894-.081818l.09027-.098283c.402781-.474357.771857-.91499 1.10723-1.321899.431787-.55803.903-1.208962 1.411996-1.950601 1.022227-1.489447 2.045421-3.078569 3.069583-4.767366 1.024162-1.688798 2.004471-3.361635 2.940928-5.01851.936458-1.656876 1.69158-3.06152 2.265369-4.213933 1.107755-2.141347 2.216639-3.83615 3.326651-5.084409s2.029783-2.029983 2.759311-2.345171c.131557-.047883.293021-.08182.484391-.101812.382741-.039983.637955.115435.765642.466254zm-89.99754 30.670637c.119627.055783.254206.118538.40374.188267.149533.069728.264202.214223.344006.433485 0 0 .017977.117611.053929.352834.035952.235222.021079.501359-.044618.79841-.065698.297051-.175249.610063-.328651.939036-.153403.328973-.419459.58721-.798169.774711l-.131557.047883c-.350819.127687-.613973.086898-.789463-.122368s-.293141-.327845-.352954-.355736l-.129621-.356129-.004489-.012333-.009539-.026209c-.01328-.036486-.032919-.090445-.059853-.164446-.071825-.197335-.100804-.447511-.086939-.750528.013865-.303016.112452-.612038.295762-.927065.183309-.315027.516151-.560326.998527-.735896l.131557-.047883c.131557-.047883.301001-.059894.508332-.036033zm112.848074-64.389475c.332923.027811.563228.217126.690916.567944.127687.350819.079966.765481-.143165 1.243987-3.984438 8.700815-7.401092 16.164494-10.249963 22.391039-2.848871 6.226544-5.188724 11.361497-7.019559 15.404857-1.830836 4.04336-3.216417 7.092829-4.156743 9.148406-.940327 2.055577-1.494164 3.262806-1.661513 3.621685-.071743.075774-.135507.173475-.191289.293101-.083675.17944-.10157.334938-.053687.466495.095765.263114.231353.362749.406762.298906.263114-.095766.802199-.627193 1.617256-1.594281.815057-.967089 1.756633-2.166458 2.824727-3.598106 1.068095-1.431649 2.236832-2.962006 3.506212-4.591071s2.492933-3.179373 3.670658-4.650924c1.177726-1.471551 2.250858-2.718803 3.219398-3.741754.96854-1.022952 1.715924-1.630194 2.242152-1.821725.482376-.17557.812316-.121843.989821.161182s.290199.490316.338082.621873c.159609.438523.040224 1.202069-.358155 2.290638s-.929283 2.324697-1.592711 3.708382c-.663428 1.383686-1.394609 2.854109-2.193544 4.411269s-1.530116 3.027582-2.193544 4.411268c-.663428 1.383685-1.187359 2.604859-1.571793 3.663522-.384433 1.058663-.504826 1.785329-.361177 2.18.031922.087705.08577.167429.161544.239173.075774.071743.267144.051752.57411-.059975.613933-.223453 1.375303-.724046 2.28411-1.50178.908807-.777733 1.865417-1.697019 2.869829-2.757858s2.036715-2.181491 3.09691-3.361956c1.060194-1.180466 2.029702-2.303093 2.908522-3.367882.87882-1.064788 1.640069-1.975046 2.283747-2.730773.097924-.11497.19089-.223825.278898-.326566.624674-1.487452 1.600312-3.220512 2.925023-5.197374 1.496461-2.233163 3.651675-4.805415 6.46564-7.716756.18734-.16751.352753-.327038.496241-.478587.374679-.335019.67165-.54243.890911-.622235l.131557-.047883c.043853-.015961.155499.017896.334939.10157.031921.087705.05288.1794.062876.275085s-.034824.211321-.134459.346909c-.302936.259244-.768262.788656-1.39598 1.588235-.627717.799579-1.325162 1.748691-2.092336 2.847337-.767174 1.098645-1.546279 2.300956-2.337314 3.606933-.791035 1.305976-1.475422 2.597967-2.05316 3.875972-.577739 1.278004-.995021 2.485192-1.251848 3.621564-.256826 1.136371-.241591 2.099228.045706 2.88857.127687.350818.323128.614899.586323.792243.263194.177345.657905.170251 1.184133-.02128.920899-.33518 1.990162-1.18373 3.20779-2.545651 1.217628-1.36192 2.386365-2.892277 3.506212-4.59107-1.267848.064166-2.141065-.151872-2.619652-.648112-.478587-.496241-.781724-.919771-.909411-1.270589-.303258-.833194-.191934-1.891776.333972-3.175746.525905-1.28397 1.255152-2.555042 2.18774-3.813217.932587-1.258174 1.945947-2.396762 3.040079-3.415764 1.094131-1.019001 2.057794-1.680131 2.890989-1.983389.350818-.127688.652827-.150702.906026-.069043.253198.081659.467583.363676.643153.846052.462867 1.271717.284959 3.000135-.533726 5.185254s-1.97924 4.420176-3.481667 6.705171l.986678-.359121c.613932-.223453 1.391263-.680194 2.331992-1.370223s1.825595-1.533541 2.654598-2.530536l.086087-.107315c1.243459-1.648434 2.442266-3.288562 3.596421-4.920384 1.442693-2.039777 2.75786-3.884154 3.945501-5.533129 1.18764-1.648976 2.24578-3.039755 3.174417-4.172338.928638-1.132582 1.677997-1.80262 2.248077-2.010112.087705-.031922.290038-.055903.607-.071945.316962-.016041.549282.247032.696961.789221.095766.263114.12277.576086.081014.938915-.041757.36283-.213015.983856-.513774 1.863079-.30076.879222-.809737 2.107369-1.526932 3.68444-.717196 1.577071-1.71133 3.689479-2.982403 6.337224-.852703 1.750545-1.293 2.655724-1.320891 2.715538 0 0 .029907.013945.08972.041837.043852-.015961.274037-.236311.690553-.661049.416517-.424739.873863-.976077 1.372038-1.654014l9.110565-12.62753c.187339-.16751.352753-.327038.49624-.478587.143488-.151548.280002-.288143.409544-.409785s.282017-.214385.457427-.278228c.087704-.031922.276092-.025997.565163.017774.28907.043772.521391.306846.696961.789221.031922.087705.000121.409665-.095403.96588s-.513855 1.589969-1.254992 3.101261l-4.5126 9.091697c-.027891.059813-.047802.141552-.059732.245218-.023861.207331-.027811.332923-.01185.376775l.023941.065779c.015961.043852.08972.041837.221277-.006046s.247153-.139618.346788-.275206l9.343692-13.01035c.282944-.450615.581849-.857377.896715-1.220288.271014-.346949.528083-.663991.771205-.951127.243123-.287136.474315-.470606.693576-.550411.131557-.047883.342879-.013059.633964.104472.291086.117531.500473.351705.62816.702524.127688.350819.071986.743555-.167106 1.178208l-5.097836 11.986433-.083674.17944c-.055783.119627-.067713.223292-.035791.310997.031921.087705.069809.123576.113661.107615.087705-.031921.130549-.084762.128534-.158521s.084682-.14256.260091-.206404c.087705-.031922.18738-.030954.299026.002902.111646.033857.215352.182342.311118.445456.079804.219262.071904.470445-.0237.75355-.095605.283106-.39451.689868-.896716 1.220288-.043852.015961-.147478.140585-.310876.373873s-.355696.489509-.576892.768665c-.221196.279155-.450373.536384-.68753.771687-.237158.235303-.443441.384877-.61885.448721-.131557.047882-.326918.056911-.586082.027085s-.484511-.307853-.676042-.834081c-.127688-.350819.038532-1.156242.498659-2.416271.460127-1.260028.981035-2.591841 1.562724-3.995437.581688-1.403597 1.118557-2.691557 1.610606-3.863881.49205-1.172323.714133-1.824264.66625-1.955821 0 0-.029907-.013945-.08972-.041837-.043852.015961-.137522.099716-.28101.251264-.231192.18347-.620784.648071-1.168777 1.393802s-1.22053 1.660947-2.017611 2.745646c-.79708 1.0847-1.661914 2.256137-2.594502 3.514311-.932588 1.258175-1.865175 2.516349-2.797763 3.774523s-1.823338 2.426629-2.672252 3.505363c-.848913 1.078735-1.56631 1.973032-2.15219 2.682891.015961.043852.002015.073759-.041837.08972l-.263114.095765c-.087705.031922-.257149.043933-.508332.036033-.251184-.0079-.440619-.187259-.568307-.538077-.095765-.263114-.046028-.604018.149211-1.022711 1.832932-3.696491 3.25644-6.573534 4.270525-8.631126 1.014086-2.057592 1.758205-3.594801 2.232359-4.611627.474153-1.016825.767013-1.644864.878578-1.884117.111566-.239253.173314-.410713.185244-.514378l-.047882-.131557c-.031922-.087705-.113662-.107616-.245219-.059733-.043852.015961-.378629.46061-1.004331 1.333949-.625702.873338-1.386911 1.92015-2.283627 3.140437-.896715 1.220288-1.821322 2.500388-2.773821 3.840302-.952499 1.339913-1.747564 2.498372-2.385196 3.475376l-6.641453 9.792043c-.099635.135587-.207251.249249-.322847.340984-.215231.227322-.498256.404827-.849074.532515-.131557.047883-.319945.041958-.565163-.017775s-.431671-.265008-.559359-.615827l-.071824-.197335c-.047883-.131557-.051913-.279075-.012091-.442554.039821-.163479.21515-.500432.525986-1.01086.2112-.374841.49612-.888251.854758-1.540232s.803933-1.509318 1.335884-2.572011c.531952-1.062693 1.182441-2.379592 1.95147-3.950698.769028-1.571106 1.655587-3.433297 2.659677-5.586575l3.597988-7.715911c-.015961-.043852-.009996-.095685.017896-.155498.055782-.119626.067713-.223292.035791-.310997-.031922-.087704-.091735-.115596-.17944-.083674-.043852.015961-.173394.137603-.388625.364926l-9.868705 13.433236c-.030891.070282-.079098.134717-.144621.193304-.39854.54235-.886801 1.042862-1.464781 1.501538s-1.171921.873499-1.781823 1.24447-1.187923.693092-1.734061.966363c-.546139.273271-.994618.47375-1.345436.601437l-1.052456.383063c-1.56224 2.257104-3.097636 4.28096-4.606188 6.071569-1.508553 1.790609-3.074097 2.981191-4.696633 3.571746-.131557.047883-.369762.109752-.714615.185606-.344854.075855-.694705.103867-1.049554.084037-.354849-.019831-.70474-.128373-1.049674-.325628s-.613167-.558997-.804698-1.085224c-.207492-.570081-.314382-1.375424-.320669-2.416029-.003651-.60415.095814-1.304417.298394-2.100803l-.194285.237845c-.721387.883334-1.543417 1.865375-2.466089 2.946125-.922673 1.08075-1.907133 2.196404-2.953382 3.346963s-2.101486 2.242312-3.165711 3.275259c-1.064225 1.032948-2.109547 1.947276-3.135966 2.742986-1.026418.795709-1.978151 1.353174-2.855197 1.672393-.263114.095765-.608975.13474-1.037583.116925s-.746658-.311763-.954151-.881843c-.191531-.526228-.097095-1.392432.283308-2.598612.380403-1.206181.935168-2.649639 1.664294-4.330376.729126-1.680736 1.597749-3.523984 2.605869-5.529744 1.00812-2.005759 2.030186-4.041426 3.066198-6.106998.055783-.119627.103585-.26118.143407-.424658.055782-.119627.100602-.235263.134459-.346909.033856-.111646.034824-.211322.002902-.299026-.031922-.087705-.091735-.115596-.17944-.083674-.175409.063843-.698534.639123-1.569373 1.725838-.87084 1.086715-1.923014 2.425661-3.156522 4.016839-1.233508 1.591177-2.562661 3.328906-3.987459 5.213184-1.424798 1.884279-2.78684 3.633978-4.086127 5.249097-1.299286 1.61512-2.450128 2.989978-3.452525 4.124576-1.002396 1.134598-1.70093 1.773721-2.095601 1.917369-.175409.063844-.384715.102779-.627918.116805s-.45259-.220148-.62816-.702524c-.079805-.219262-.071905-.470445.023699-.75355 3.099813-7.037974 5.842036-13.250532 8.226669-18.637676 2.384632-5.387144 4.47044-10.094415 6.257424-14.121815 1.786983-4.027399 3.299042-7.445703 4.536178-10.254911s2.273067-5.147891 3.107794-7.016047c.834726-1.868157 1.496139-3.325602 1.984238-4.372334s.883576-1.836275 1.186431-2.368629c.302856-.532354.526027-.874305.669514-1.025854.143488-.151548.28101-.251264.412567-.299147.235223-.035952.519295-.040023.852218-.012212zm17.052457 27.203274c-.221277.006046-.41962.040991-.595029.104835-.57008.207492-1.235765.69809-1.997055 1.471793-.761289.773702-1.449787 1.645066-2.065493 2.614089s-1.10183 1.952959-1.458373 2.951808c-.356542.99885-.415106 1.827167-.175692 2.484952.143649.39467.437798.759394.882447 1.094172.44465.334777 1.101548.468148 1.970694.400112.649563-1.080669 1.251283-2.15634 1.805161-3.227014.553878-1.070673 1.017068-2.083509 1.389571-3.038506.372503-.954996.637391-1.796332.794663-2.524006.157272-.727675.164084-1.288847.020435-1.683518-.159609-.438524-.350052-.654762-.571329-.648717zm54.059395-24.927728c.310997.035792.59112.157313.840369.364563.249248.207251.461658.552064.637228 1.03444.111727.306966-.003789.671811-.346546 1.094534-.557989.650046-1.074141 1.210372-1.548455 1.680978-.38661.438684-.774228.840489-1.162853 1.205415-.388625.364925-.670642.579309-.846051.643153-.015961-.043852-.137563-.036839-.364805.021039-.227242.057879-.412687-.110517-.556336-.505188-.095765-.263114-.02906-.523286.200117-.780515s.510186-.508493.843029-.753792c.332842-.245299.617842-.4856.854999-.720903.237158-.235303.323814-.440659.259971-.616068-.063844-.17541-.227323-.215231-.490437-.119466-.394671.143649-1.015536.51861-1.862595 1.124884-.84706.606274-1.786781 1.333183-2.819165 2.180725-1.032384.847543-2.077705 1.761871-3.135965 2.742986-1.05826.981114-2.002899 1.93329-2.833917 2.856526s-1.486626 1.782628-1.966826 2.578177c-.480199.795549-.648474 1.390658-.504826 1.785329.063844.17541.218375.292981.463593.352713.245219.059733.674794-.022127 1.288726-.24558.394671-.143649.849115-.395961 1.363332-.756936s1.017471-.717961 1.509762-1.070955c.49229-.352995.929766-.686039 1.312426-.999132.38266-.313092.68362-.509541.902882-.589345.131557-.047883.301001-.059894.508332-.036033s.406763.298905.598294.825133c.111726.306966-.225026.814411-1.010256 1.522336-.785231.707924-1.959047 1.917329-3.521447 3.628214-1.127908 1.403757-2.118294 2.707799-2.971157 3.912125-.753229 1.068739-1.396826 2.097576-1.930793 3.08651s-.721146 1.702662-.561536 2.141186c.079805.219261.260292.47637.541463.771325s.750648.322726 1.408433.083312 1.452044-.751978 2.382778-1.537692c.930733-.785714 1.931195-1.720961 3.001385-2.805742 1.070191-1.08478 2.142356-2.232356 3.216496-3.442728 1.074141-1.210372 2.08351-2.359923 3.028109-3.448653.944598-1.08873 1.752682-2.040866 2.424252-2.856406.671569-.81554 1.150841-1.374858 1.437816-1.677955l.023942.065779c.01596.043852.042884.083714.080772.119586.037887.035872.064811.075734.080772.119586.127687.350819.091896.661816-.107374.93299-.944599 1.088731-2.102413 2.478542-3.473444 4.169436-1.37103 1.690893-2.830773 3.376829-4.379228 5.057807-1.548454 1.680978-3.089977 3.210448-4.624566 4.58841-1.53459 1.377962-2.937744 2.298376-4.209461 2.761244-.57008.207492-1.184053.29439-1.841918.260695-.657866-.033696-1.146408-.489067-1.465627-1.366113-.207492-.570081-.280444-1.21396-.218857-1.931639.061586-.717678.315511-1.555024.761773-2.512036s1.099815-2.026718 1.960659-3.209118 1.964851-2.515381 3.31202-3.998944c-.015961-.043852-.009995-.095685.017896-.155498.055783-.119626.059733-.245218.01185-.376775s-.247234-.133492-.598052-.005804c-.17541.063843-.442514.148646-.801313.254407-.358799.105762-.718605.174644-1.07942.206646-.360814.032002-.701717-.017735-1.02271-.149211-.320992-.131477-.553313-.39455-.696961-.789221-.207493-.57008-.110034-1.325646.292376-2.266697.40241-.941052 1.013118-1.957917 1.832125-3.050597.819007-1.092681 1.792504-2.204345 2.920493-3.334992 1.127988-1.130648 2.316797-2.196525 3.566428-3.197631 1.24963-1.001106 2.487329-1.898547 3.713099-2.692322 1.225769-.793775 2.342955-1.374213 3.351559-1.741315.350818-.127687.694664-.240421 1.031537-.338202s.660808-.128776.971804-.092985zm-135.496573-6.780839.924976 9.62419c1.884533.241901 3.388701 1.701944 3.682618 3.568035l9.656067.544276-9.673356.924406c-.337141 1.771059-1.754862 3.144709-3.527014 3.438445l-.535968 9.900648-.899043-9.917926c-1.69435-.311015-3.042915-1.615551-3.40599-3.282938l-9.958629-.535637 9.889472-.898488c.216116-1.814255 1.556036-3.274298 3.302254-3.663067zm141.753867 22.642281c.165494.113581.331996.264041.499505.451381.167509.187339.342999.396605.526469.627797.047883.131557.042966.356824-.014752.675802-.057717.318977-.159287.653915-.304709 1.004814s-.335704.68088-.570846.989942-.498216.541382-.789221.696961c-.701637.255375-1.212993.18077-1.534066-.223816s-.50555-.672658-.553433-.804215-.032003-.360814.047641-.687772.225066-.677857.436266-1.052697c.211201-.374841.456298-.724772.735293-1.049795.278994-.325023.615827-.559359 1.010498-.703008.175409-.063843.345861-.038975.511355.074606zm74.652053-39.164409c.291086.117531.500472.351706.62816.702524.127687.350819.071985.743555-.167107 1.178209l-5.097836 11.986433-.083674.179439c-.055782.119627-.067713.223292-.035791.310997s.069809.123577.113661.107616c.087705-.031922.13055-.084763.128534-.158522-.002015-.073759.084682-.14256.260091-.206404.087705-.031922.18738-.030954.299026.002902.111647.033857.215352.182342.311118.445456.079805.219262.071905.470445-.0237.753551-.095604.283105-.39451.689867-.896716 1.220287-.043852.015961-.147477.140585-.310876.373873-.163398.233288-.355695.48951-.576892.768665-.221196.279155-.450373.536385-.68753.771688s-.443441.384876-.61885.44872c-.131557.047883-.326917.056911-.586081.027085s-.484512-.307853-.676043-.834081c-.127688-.350819.038532-1.156242.49866-2.416271.460127-1.260028.981035-2.591841 1.562723-3.995437.581689-1.403596 1.118558-2.691556 1.610607-3.86388s.714132-1.824265.666249-1.955822c0 0-.029906-.013945-.08972-.041837-.043852.015961-.137522.099716-.281009.251264-.231192.183471-.620785.648071-1.168778 1.393802s-1.220529 1.660947-2.01761 2.745647c-.797081 1.084699-1.661915 2.256136-2.594503 3.514311l-2.797763 3.774522c-.932587 1.258175-1.823338 2.426629-2.672251 3.505364-.848914 1.078734-1.566311 1.973031-2.152191 2.68289.015961.043852.002016.073759-.041837.08972l-.263114.095766c-.087704.031922-.257148.043933-.508332.036033-.251183-.0079-.440619-.18726-.568306-.538078-.095766-.263114-.046029-.604018.149211-1.02271 1.832931-3.696492 3.256439-6.573534 4.270525-8.631127 1.014085-2.057592 1.758205-3.594801 2.232358-4.611626.474154-1.016826.767013-1.644865.878579-1.884118.111565-.239253.173313-.410712.185244-.514378l-.047883-.131557c-.031922-.087705-.113661-.107615-.245218-.059733-.043853.015961-.37863.460611-1.004332 1.333949-.625701.873338-1.38691 1.92015-2.283626 3.140438-.896716 1.220287-1.821323 2.500387-2.773822 3.840301-.952498 1.339914-1.747564 2.498372-2.385196 3.475376l-6.641453 9.792043c-.099635.135588-.20725.249249-.322846.340984-.215231.227323-.498256.404828-.849075.532515-.131557.047883-.319944.041958-.565163-.017775-.245218-.059732-.431671-.265008-.559358-.615827l-.071825-.197335c-.047882-.131557-.051913-.279075-.012091-.442554s.215151-.500432.525986-1.01086c.211201-.374841.49612-.888251.854758-1.540232s.803933-1.509317 1.335884-2.57201c.531952-1.062693 1.182442-2.379593 1.95147-3.950699.769028-1.571105 1.655587-3.433297 2.659677-5.586574l3.597988-7.715911c-.015961-.043853-.009995-.095685.017896-.155499.055783-.119626.067713-.223292.035791-.310996-.031921-.087705-.091735-.115596-.179439-.083675-.043853.015961-.173394.137603-.388626.364926l-9.868705 13.433236c-.030891.070282-.079098.134717-.144621.193304-.39854.54235-.8868 1.042863-1.46478 1.501538-.577981.458676-1.171922.873499-1.781824 1.244471-.609902.370971-1.187922.693091-1.734061.966362s-.994617.47375-1.345436.601437l-1.052456.383063c-1.562239 2.257104-3.097635 4.280961-4.606188 6.07157-1.508552 1.790609-3.074096 2.98119-4.696632 3.571745-.131557.047883-.369763.109752-.714616.185607-.344853.075854-.694704.103866-1.049554.084036-.354849-.01983-.70474-.128373-1.049674-.325628s-.613166-.558996-.804698-1.085224c-.207492-.57008-.314382-1.375423-.320669-2.416029-.003588-.593764.092425-1.280369.288038-2.059816-.515098.627888-.987308 1.203056-1.415462 1.72524-.928637 1.132583-1.76562 2.107652-2.510949 2.925207-.745328.817555-1.537492 1.676988-2.37649 2.578298s-1.722856 1.781701-2.651575 2.641174c-.928718.859473-1.885368 1.642204-2.869949 2.348194-.984582.70599-2.0031 1.250516-3.055556 1.633578-.789342.287297-1.528906.370246-2.218693.248845-.689788-.1214-1.202271-.642549-1.537451-1.563448-.367102-1.008603-.439248-2.298377-.216439-3.869322s.693779-3.244628 1.412909-5.02105c.71913-1.776421 1.658529-3.595768 2.818198-5.45804 1.159669-1.862273 2.465888-3.6289 3.918658-5.299882 1.452769-1.670983 3.043142-3.168571 4.771117-4.492765 1.727975-1.324195 3.512862-2.321472 5.354659-2.991831.394671-.143649.729569-.178634 1.004694-.104955.275125.073678.518368.196207.72973.367586.255214.155417.45263.356703.592248.603856.159609.438523.117933 1.074462-.125028 1.907817-.242962.833356-.603535 1.684687-1.081719 2.553995-.478184.869307-1.010216 1.65889-1.596096 2.36875-.58588.709859-1.16386 1.168535-1.73394 1.376027-.087705.031922-.209306.038935-.364805.021039-.155498-.017896-.257189-.092622-.305071-.224179-.063844-.175409.084561-.552225.445214-1.130446.360653-.578222.760161-1.220247 1.198523-1.926076s.805948-1.435558 1.102757-2.189189c.29681-.753631.349449-1.393561.157918-1.919789-.143649-.394671-.500513-.48826-1.070593-.280768-.701637.255375-1.584569.899536-2.648794 1.932484-1.064225 1.032947-2.192173 2.30015-3.383844 3.801608s-2.361376 3.13149-3.509114 4.890096c-1.147738 1.758607-2.136995 3.509193-2.967772 5.251758-.830776 1.742565-1.432335 3.364456-1.804677 4.865672s-.382943 2.7342-.031802 3.698951c.127687.350818.360008.613892.696961.789221.336954.175329.812397.151266 1.426329-.072187.701637-.255375 1.432133-.670238 2.191488-1.244591.759354-.574352 1.527657-1.226453 2.304907-1.956304s1.531567-1.4886 2.26295-2.276249c.731382-.787649 1.41194-1.544383 2.041672-2.270203l5.844129-6.632197c.624825-1.509385 1.613035-3.272566 2.964629-5.289545 1.496461-2.233162 3.651674-4.805414 6.465639-7.716756.18734-.167509.352754-.327038.496241-.478587.37468-.335018.67165-.54243.890912-.622235l.131557-.047883c.043852-.01596.155498.017896.334938.10157.031922.087705.052881.1794.062876.275085.009996.095685-.034824.211321-.134459.346909-.302936.259244-.768262.788656-1.395979 1.588235s-1.325163 1.748692-2.092337 2.847337-1.546279 2.300956-2.337313 3.606933c-.791035 1.305976-1.475422 2.597967-2.053161 3.875972-.577738 1.278004-.995021 2.485193-1.251847 3.621564-.256827 1.136371-.241592 2.099228.045705 2.88857.127688.350818.323129.6149.586323.792244s.657906.17025 1.184133-.021281c.920899-.33518 1.990162-1.18373 3.20779-2.54565 1.217628-1.361921 2.386365-2.892278 3.506212-4.591071-1.267848.064166-2.141065-.151871-2.619652-.648112-.478586-.496241-.781723-.91977-.909411-1.270589-.303258-.833194-.191934-1.891776.333972-3.175746s1.255152-2.555042 2.18774-3.813216c.932588-1.258175 1.945947-2.396763 3.040079-3.415764 1.094132-1.019002 2.057795-1.680132 2.890989-1.98339.350818-.127687.652827-.150702.906026-.069043s.467583.363676.643154.846052c.462867 1.271717.284958 3.000135-.533727 5.185254-.818684 2.185119-1.97924 4.420176-3.481666 6.705172l.986677-.359122c.613933-.223453 1.391263-.680194 2.331993-1.370223.940729-.690028 1.825595-1.53354 2.654597-2.530535l.086088-.107316c1.243459-1.648434 2.442265-3.288562 3.59642-4.920384 1.442694-2.039777 2.757861-3.884153 3.945501-5.533129 1.187641-1.648976 2.24578-3.039755 3.174418-4.172338.928637-1.132582 1.677996-1.802619 2.248076-2.010112.087705-.031922.290038-.055903.607-.071945.316962-.016041.549283.247033.696962.789221.095765.263114.12277.576086.081013.938916-.041756.362829-.213014.983855-.513774 1.863078-.300759.879223-.809737 2.10737-1.526932 3.684441-.717196 1.577071-1.71133 3.689478-2.982403 6.337223-.852702 1.750545-1.292999 2.655725-1.320891 2.715538 0 0 .029907.013946.08972.041837.043853-.015961.274037-.236311.690553-.661049.416517-.424739.873863-.976077 1.372038-1.654014l9.110565-12.62753c.18734-.167509.352753-.327038.496241-.478587.143487-.151548.280002-.288143.409544-.409785.129541-.121642.282017-.214384.457426-.278228.087705-.031922.276092-.025997.565163.017775s.521391.306845.696961.789221c.031922.087704.000121.409664-.095403.965879s-.513854 1.589969-1.254991 3.101262l-4.5126 9.091696c-.027892.059813-.047802.141553-.059733.245218-.023861.207331-.027811.332923-.01185.376775l.023942.065779c.015961.043852.08972.041837.221276-.006046.131557-.047883.247153-.139618.346789-.275205l9.343691-13.010351c.282944-.450615.58185-.857377.896716-1.220287.271014-.346949.528082-.663992.771204-.951128.243123-.287136.474315-.470606.693577-.550411.131557-.047882.342878-.013059.633964.104472zm-363.3967287-9.988371.9271861.705426c.0319218.087705.0519133.279075.0599743.574111-1.8356734 7.918728-3.3876364 14.604392-4.6558891 20.056992-1.2682526 5.4526-2.31152 9.954234-3.1298021 13.504901s-1.4743346 6.284947-1.9681574 8.202841c-.4938229 1.917894-.8612074 3.330398-1.1021536 4.237512s-.4142194 1.454381-.5198197 1.641802c-.1056004.18742-.2022528.297091-.2899575.329013-.3388881.024022-.6289261.079925-.8701138.16771-.2411878.087786-.4854387-.071622-.7327528-.478224l-.1020529-1.30372c.6821791-2.752966 1.3199461-5.31844 1.9133008-7.696421l.3506833-1.404289c.6331488-2.533283 1.2125588-4.839699 1.73823-6.919249 1.0991307-4.348151 2.0081001-7.956656 2.7269082-10.825516.7188081-2.868861 1.3032376-5.117702 1.7532887-6.746526.450051-1.628823.8065127-2.900782 1.0693851-3.815876.2628723-.915095.4510586-1.591944.5645589-2.030548.1135002-.438604.2160374-.873217.3076115-1.30384-.139618-.247153-.2971316-.338808-.4725409-.274964-.247153.139618-.6765673.767697-1.288243 1.884238s-1.3239538 2.468345-2.1368344 4.055412-1.6735635 3.315686-2.5820487 5.185858c-.9084851 1.870172-1.8090301 3.625716-2.7016348 5.26663-.8926048 1.640915-1.7174964 3.058538-2.4746747 4.252868-.7571783 1.194331-1.3609944 1.923134-1.811448 2.186409-.4823756.17557-.8332344.166703-1.0525765-.026602-.2193422-.193305-.3529547-.355736-.4008375-.487293l2.2894307-3.73849c.0598133.027891.1335722.025876.2212769-.006046.1634788.039822.2751249.073678.3349381.10157.015961.043852.343725-.522399.9832921-1.698753.639567-1.176354 1.44749-2.674709 2.4237689-4.495063.9762789-1.820355 2.0292591-3.805196 3.1589406-5.954523 1.1296815-2.149328 2.2185336-4.172056 3.2665562-6.068185 1.0480226-1.896128 1.9525981-3.504154 2.7137264-4.824076.7611283-1.319923 1.2572885-2.071619 1.4884806-2.255089zm-27.5561115 27.237359c.1196265.055783.3010816.213216.5443651.472299.2432836.259084.4846324.717518.7240465 1.375303.1596094.438523.2434446.805302.2515056 1.100338.0040305.147518-.0079.251184-.0357914.310997l-1.41569 5.72974 7.5645256-2.753262c.1754093-.063844.2870554-.029987.3349382.10157.0319219.087704.0349447.198343.0090686.331915s-.0667056.260171-.1224883.379798l-.2091854.448599c-.3346966.71776-.6973651 1.222222-1.0880055 1.513389-.1873397.167509-.3687142.283186-.5441235.347029l-6.5778484 2.394141-2.2519483 9.162796c-.0557828.119627-.0836742.17944-.0836742.17944-.3069662.111727-.569153-.028738-.7865605-.421394-.2174074-.392655-.3739939-.72054-.4697595-.983654-.4309454-1.184013-.5587135-1.807941-.3833042-1.871785l1.2125504-5.059863-7.69608254 2.801145-.13155696.047882c-.04385233.015961-.0897199-.041837-.13760272-.173394-.03192188-.087704-.03196214-.224259-.00012079-.409664.03184136-.185405.14538187-.487454.34062155-.906147.35065753-.673907.67447156-1.114566.9714421-1.321978.29697053-.207411.48930812-.327078.57701277-.359l6.77518379-2.465965c.5973274-2.452183 1.0622512-4.347143 1.3947715-5.68488.3325203-1.337738.5714512-2.318611.7167928-2.94262.1453416-.624008.2459038-.995826.3016866-1.115453.0557828-.119626.1275265-.1954.2152311-.227322zm71.6139097-39.324987c.2890706.043772.4735082.175289.5533129.39455.0798047.219262.0081415.568146-.2149895 1.046652-.2231311.478506-.5647602 1.347773-1.0248875 2.607802-.4601273 1.260028-.980995 2.728396-1.562603 4.405102s-1.1681736 3.442124-1.7596968 5.296255c-.5915232 1.85413-1.1123103 3.595607-1.5623613 5.22443-.4500511 1.628824-.7915192 3.04431-1.0244044 4.24646s-.285484 1.978634-.1577965 2.329453c.0319219.087705.2093464.09762.5322736.029746.1913703-.019992.4993441-.094839.9239217-.224542.4245775-.129702.8680986-.241469 1.3305632-.3353s.9010281-.116886 1.3156905-.069164c.4146623.047722.6778568.225066.7895833.532032.1117266.306966-.0735979.548235-.5559734.723805-.6458544.135749-1.3644601.310392-2.1558172.52393-.791357.213538-1.5817064.463955-2.3710482.751252-.2192617.079805-.3448131.21241-.3766545.397815-.0318413.185405-.1015295.471493-.2090646.858264-.1433263.697767-.3145038 1.591903-.5135324 2.682407s-.3581548 2.290639-.4773787 3.600404c-.1192239 1.309766-.1816172 2.673339-.1871798 4.09072s.1054785 2.779906.3331232 4.087576c.1597704.984743.1300249 1.517016-.0892367 1.596821-.0877047.031922-.2153117-.045787-.382821-.233127-.1675094-.18734-.3151078-.456419-.4427953-.807237l-.0718243-.197336c-.3351797-.920899-.555771-1.970412-.661774-3.14854-.1060029-1.178128-.1352643-2.384188-.0877841-3.618179s.1398203-2.447064.2770204-3.639218.2594871-2.254727.3668611-3.187717c.115435-.637954.1571916-1.000784.1252697-1.088489-.0478828-.131557-.1814551-.157433-.4007167-.077628-1.7540929.638438-3.3945245 1.384491-4.9212947 2.238159-1.5267703.853669-2.8880868 1.684364-4.0839494 2.492084-1.1958626.807721-2.2282867 1.518709-3.0972721 2.132963-.8689855.614255-1.5227398 1.001187-1.961263 1.160796-.5700802.207493-1.2419315.067149-2.015554-.421031-.7736224-.48818-1.2641797-1.01731-1.4716719-1.58739-.0798047-.219261-.0559439-.426593.0715826-.621993l21.1557703-31.314176c.0717437-.075774.2172464-.153563.436508-.233368s.461457-.13071.7265862-.152717c.2651291-.022007.5232855-.02906.774469-.02116l.7774919.089478c.354688-.526389.6884575-1.007918 1.0013084-1.444587.312851-.436669.7762427-.76673 1.3901752-.990183.3508186-.127688.6707632-.169645.9598338-.125874zm286.1952805 33.245392c-.221276.006045-.41962.04099-.595029.104834-.57008.207492-1.235765.69809-1.997054 1.471793-.76129.773703-1.449787 1.645066-2.065494 2.614089-.615706.969023-1.10183 1.952959-1.458372 2.951809-.356542.998849-.415106 1.827166-.175692 2.484951.143648.394671.437797.759395.882447 1.094172.444649.334777 1.101547.468148 1.970694.400113.649562-1.08067 1.251283-2.156341 1.80516-3.227015.553878-1.070673 1.017068-2.083508 1.389572-3.038505.372503-.954997.63739-1.796333.794662-2.524007.157272-.727675.164084-1.288847.020436-1.683518-.15961-.438523-.350053-.654762-.57133-.648716zm-267.829298-43.8781622.927186.7054261c.031922.0877046.051913.2790748.059974.5741107-1.835673 7.9187283-3.387636 14.6043924-4.655889 20.0569924-1.268252 5.4526-2.31152 9.954234-3.129802 13.504901-.8182818 3.550667-1.4743343 6.284947-1.9681571 8.202841-.4938229 1.917894-.8612074 3.330398-1.1021536 4.237512s-.4142194 1.454381-.5198197 1.641801c-.1056004.187421-.2022528.297092-.2899575.329014-.3388881.024022-.6289261.079925-.8701138.16771-.2411878.087785-.4854387-.071623-.7327528-.478224l-.1020529-1.30372c1.5690121-6.331822 2.9030835-11.671809 4.0022141-16.019959 1.0991307-4.348151 2.0081003-7.956656 2.7269083-10.825516.718808-2.868861 1.303238-5.117702 1.753289-6.746526.450051-1.628823.806512-2.900782 1.069385-3.815876.262872-.915095.451058-1.5919442.564559-2.0305479.1135-.4386038.216037-.8732173.307611-1.3038406-.139618-.247153-.297132-.3388076-.472541-.2749638-.247153.1396179-.676567.7676974-1.288243 1.8842385-.611675 1.1165411-1.323954 2.4683448-2.136834 4.0554118-.812881 1.587067-1.6735637 3.315686-2.5820489 5.185858-.9084851 1.870172-1.8090301 3.625716-2.7016349 5.26663-.8926047 1.640915-1.7174963 3.058538-2.4746746 4.252868-.7571784 1.194331-1.3609944 1.923133-1.811448 2.186408-.4823756.175571-.8332344.166703-1.0525765-.026602-.2193422-.193304-.3529547-.355735-.4008375-.487292l2.2894307-3.73849c.0598133.027891.1335722.025876.2212769-.006046.1634788.039822.2751249.073678.3349381.10157.015961.043852.343725-.522399.9832921-1.698753.639567-1.176355 1.44749-2.674709 2.4237689-4.495064.9762789-1.820354 2.0292591-3.805195 3.1589406-5.954523 1.1296811-2.149327 2.2185341-4.1720552 3.2665561-6.0681839 1.048023-1.8961287 1.952598-3.5041542 2.713727-4.8240765.761128-1.3199223 1.257288-2.0716185 1.48848-2.2550888zm-23.0802693 15.1793432c-.5262278.191532-1.316376 1.124723-2.3704443 2.799575-1.0540684 1.674852-2.4080093 3.856141-4.0618229 6.543869-1.6538136 2.687727-3.6334565 5.742355-5.9389287 9.163883s-4.9507998 6.966753-7.935983 10.635676c.0040305.147517.065859.249168.1854856.304951.1515484.143487.424658.143406.8193289-.000242.131557-.047883.2591237-.106729.3827002-.176538s.2870151-.166542.4903158-.290199c.8849464-.570402 1.8984671-1.162771 3.0405622-1.777106s2.3180871-1.203761 3.5279759-1.768279 2.3948689-1.095138 3.5549402-1.591862 2.2005563-.912676 3.1214551-1.247856c.131557-.047882.2192616-.079804.2631139-.095765.0438524-.015961.2053159-.049898.4843908-.101812.1471958-1.096469.4039822-2.369395.7703591-3.818778.3663769-1.449384.7686256-2.936654 1.2067462-4.461812s.8872043-3.054306 1.347251-4.587444c.4600468-1.533138.8722912-2.924723 1.2367334-4.174756s.6452102-2.320626.8423041-3.211779c.1970938-.891153.2397775-1.490213.1280509-1.797179-.0478828-.131557-.2093867-.234175-.4845116-.307853-.2751249-.073679-.4784658-.086577-.6100228-.038694zm44.2384493-18.038282c.127687.3508186-.031681.7316243-.478104 1.1424172s-.952659.7936944-1.518709 1.1487046c-.681646.4467452-1.445031.8735796-2.290155 1.280503-.920899.3351798-2.058077.7242478-3.411534 1.1672042-1.353456.4429563-3.004932.91989-4.954425 1.4308012-.298906.4067624-.706353 1.1634162-1.222344 2.2699616s-1.029966 2.2868497-1.541926 3.5409129c-.51196 1.2540633-.937223 2.4393253-1.275789 3.5557853-.338566 1.116461-.501803 1.895968-.489712 2.338522.047883.131557.128655.251143.242316.358759.113661.107615.258197.129501.433606.065657 2.351903-1.451962 4.426828-2.505143 6.224773-3.159541 2.762696-1.005539 4.923592-1.208517 6.482687-.608933 1.559094.599585 2.6419 1.732571 3.248415 3.398959.446907 1.227865.637712 2.673097.572417 4.335697-.065295 1.662599-.364806 3.39803-.898531 5.206293s-1.25483 3.647481-2.163315 5.517653c-.908486 1.870172-1.997418 3.61979-3.266798 5.248855s-2.680353 3.073773-4.232919 4.334123c-1.552566 1.260351-3.205895 2.209745-4.959988 2.848183-.306966.111726-.60696.208499-.89998.290319-.293021.08182-.600995.156667-.923922.224542l-.131557.047882c-.430623-.091574-.690795-.158279-.780515-.200116s-.150541-.106608-.182462-.194313c-.063844-.175409-.002096-.346869.185244-.514378.071743-.075774.173394-.137603.304951-.185485.338888-.024022.650852-.087906.935892-.191652.28504-.103747.602969-.219463.953788-.347151 1.578684-.574594 3.060594-1.449181 4.445731-2.623762 1.385137-1.17458 2.636662-2.511592 3.754574-4.011035 1.117912-1.499442 2.081293-3.116456 2.890143-4.85104.80885-1.734585 1.445274-3.431242 1.90927-5.089972.463997-1.65873.719695-3.241645.767095-4.748746s-.120432-2.78688-.503495-3.839335c-.446906-1.227865-1.215651-2.077867-2.306236-2.550005-1.090584-.472138-2.556775-.373028-4.398573.297332-.964751.35114-2.039092.878738-3.223024 1.582793-1.183933.704055-2.483421 1.6364-3.898464 2.797035-.613933.223453-1.292757.098063-2.036473-.376171s-1.249226-1.010337-1.516532-1.608308c-.123818-.74952.036356-1.776221.480523-3.080102.444166-1.30388.97902-2.6656 1.604561-4.0851569.62554-1.4195573 1.252089-2.8022352 1.879645-4.1480336s1.024928-2.4712471 1.192115-3.3763459c1.87775-.435137 3.546194-.8313389 5.005331-1.1886059 1.459138-.3572669 2.802639-.7593536 4.030504-1.2062599.74549-.271336 1.457082-.5675807 2.134778-.8887342.677696-.3211536 1.32746-.7190486 1.949292-1.1936853.346788-.2752054.651739-.460691.914853-.5564566.482376-.1755703.803368-.0440939.962978.3944293zm40.450865-14.4249411c.859312.3824989 1.48848 1.1219024 1.887503 2.2182104.494789 1.359422.572094 3.2432579.231916 5.6515078-.340179 2.4082498-1.230446 5.2153621-2.670802 8.4213369-1.440357 3.2059748-3.520521 6.7689749-6.240495 10.6890004-2.719973 3.9200256-6.182454 8.0854706-10.387441 12.4963356 2.946006-1.320567 5.870085-2.633153 8.772238-3.937758 2.902154-1.304606 5.866135-2.507561 8.891945-3.608866 1.403275-.51075 2.807557-.984621 4.212846-1.421612 1.40529-.436991 2.819568-.815176 4.242833-1.134556.322927-.067874.677777-.048044 1.064547.059491.386771.107535.722717.245984 1.007838.415348.28512.169363.533362.339735.744723.511113.211362.171379.317043.257068.317043.257068.079804.219262-.055702.392737-.406521.520424-.717598.211523-1.491019.406117-2.320263.583783-.829245.177667-1.822935.415186-2.981071.712559-1.158137.297374-2.505629.688497-4.042475 1.173371-1.536847.484874-3.379652 1.118354-5.528416 1.90044-3.069662 1.117266-5.960893 2.281326-8.673691 3.492181-2.712798 1.210856-4.842498 2.420542-6.389098 3.62906.015961.043852.002015.073759-.041837.08972-.087705.031922-.26916-.125511-.544365-.4723-.275206-.346788-.508574-.783296-.700105-1.309523l-.071825-.197336c.681485-.992964 1.685816-2.326913 3.012994-4.001845 1.327178-1.674933 2.769912-3.578155 4.328202-5.709667 1.558289-2.131513 3.124519-4.3776538 4.698689-6.7384235 1.57417-2.3607696 2.938026-4.7194838 4.091568-7.0761424 1.153543-2.3566587 1.974203-4.6045733 2.46198-6.743744s.450334-4.0499307-.11233-5.7322799c-.159609-.4385232-.518569-.8789811-1.07688-1.3213738s-1.363694-.4720577-2.41615-.0889952c-1.359422.4947892-2.65496 1.3015424-3.886614 2.4202598s-2.390516 2.3350948-3.476587 3.6491324-2.062511 2.5881728-2.92932 3.8224057-1.601134 2.1843527-2.202975 2.8503596l-.113661-.1076155c-.119627-.0557828-.211362-.1713788-.275206-.3467881-.079804-.2192616-.141673-.4574668-.185606-.7146155s.033736-.5213105.233006-.7924855c1.446643-2.1653689 2.993003-4.1932157 4.639077-6.0835402 1.402952-1.6031887 2.95443-3.1735284 4.654433-4.7110192 1.700004-1.5374907 3.405126-2.6174744 5.115366-3.2399511 1.184013-.4309453 2.205675-.4551686 3.064987-.0726697zm34.282198-13.6695788c.289071.0437718.473508.1752885.553313.3945501s.008142.5681455-.214989 1.0466516-.564761 1.3477733-1.024888 2.6078018-.980995 2.7283958-1.562603 4.4051018c-.581608 1.6767061-1.168173 3.4421245-1.759697 5.2962551-.591523 1.8541306-1.11231 3.5956075-1.562361 5.2244307-.450051 1.6288233-.791519 3.0443099-1.024404 4.2464598-.232886 1.20215-.285484 1.9786342-.157797 2.3294528.031922.0877047.209347.0976198.532274.0297456.19137-.0199914.499344-.0948385.923921-.2245413.424578-.1297028.868099-.2414696 1.330564-.3353005.462464-.093831.901028-.1168855 1.31569-.0691638.414662.0477218.677857.2250658.789584.5320321.111726.3069662-.073598.5482345-.555974.7238049-.645854.1357485-1.36446.3103917-2.155817.5239297s-1.581707.4639554-2.371048.7512523c-.219262.0798047-.344813.2124096-.376655.3978146-.031841.185405-.101529.471493-.209064.8582639-.143327.6977677-.314504 1.5919035-.513533 2.6824074-.199028 1.0905039-.358155 2.2906386-.477379 3.6004041-.119223 1.3097655-.181617 2.6733388-.187179 4.0907198-.005563 1.4173811.105478 2.7799064.333123 4.0875764.15977.984742.130025 1.517016-.089237 1.596821-.087705.031922-.215312-.045787-.382821-.233127s-.315108-.456419-.442795-.807238l-.071824-.197335c-.33518-.920899-.555771-1.970412-.661774-3.1485402-.106003-1.178128-.135265-2.3841877-.087785-3.618179.047481-1.2339913.139821-2.447064.277021-3.6392182.1372-1.1921543.259487-2.2547265.366861-3.1877168.115435-.6379544.157192-1.000784.12527-1.0884886-.047883-.131557-.181455-.1574331-.400717-.0776284-1.754093.6384376-3.394524 1.3844908-4.921295 2.2381595-1.52677.8536687-2.888087 1.6843633-4.083949 2.492084-1.195863.8077206-2.228287 1.5187082-3.097272 2.1329628-.868986.6142546-1.52274 1.0011866-1.961263 1.160796-.57008.2074923-1.241932.0671485-2.015554-.4210312-.773623-.4881797-1.26418-1.0173097-1.471672-1.5873899-.079805-.2192616-.055944-.4265927.071582-.6219935l21.155771-31.3141754c.071743-.0757742.217246-.1535637.436508-.2333684.219261-.0798047.461457-.1307104.726586-.152717.265129-.0220067.523285-.0290601.774469-.0211602l.777492.0894784c.354688-.526389.688457-1.0079179 1.001308-1.444587.312851-.436669.776243-.7667301 1.390175-.9901832.350819-.1276876.670764-.1696454.959834-.1258736zm27.561185-10.0314508c.28907.0437718.473508.1752885.553313.3945501.079804.2192616.008141.5681455-.21499 1.0466516s-.56476 1.3477733-1.024887 2.6078018c-.460128 1.2600285-.980995 2.7283958-1.562603 4.4051018-.581608 1.6767061-1.168174 3.4421245-1.759697 5.2962551s-1.11231 3.5956075-1.562361 5.2244307c-.450051 1.6288233-.79152 3.0443099-1.024405 4.2464598-.232885 1.20215-.285484 1.9786342-.157796 2.3294528.031922.0877047.209346.0976198.532273.0297456.191371-.0199915.499344-.0948386.923922-.2245413.424578-.1297028.868099-.2414696 1.330563-.3353006.462465-.0938309.901028-.1168854 1.315691-.0691637.414662.0477218.677856.2250658.789583.5320321.111727.3069662-.073598.5482345-.555973.7238049-.645855.1357485-1.36446.3103917-2.155818.5239297-.791357.213538-1.581706.4639554-2.371048.7512523-.219261.0798047-.344813.2124096-.376654.3978146-.031842.185405-.10153.471493-.209065.8582639l-.099677.4942701c-.121103.6105885-.259055 1.3399676-.413855 2.1881373-.199029 1.0905039-.358155 2.2906386-.477379 3.6004041s-.181617 2.6733388-.18718 4.0907198c-.005562 1.4173811.105479 2.7799065.333123 4.0875762.159771.9847425.130025 1.5170161-.089236 1.5968208-.087705.0319219-.215312-.045787-.382821-.2331267-.16751-.1873398-.315108-.4564189-.442796-.8072375l-.071824-.1973354c-.33518-.9208988-.555771-1.9704122-.661774-3.1485402s-.135264-2.3841877-.087784-3.618179.13982-2.447064.27702-3.6392182c.137201-1.1921543.259488-2.2547265.366862-3.1877168.115435-.6379544.157191-1.000784.125269-1.0884886-.047883-.131557-.181455-.1574331-.400716-.0776284-1.754093.6384376-3.394525 1.3844907-4.921295 2.2381595-1.52677.8536687-2.888087 1.6843633-4.08395 2.492084-1.195862.8077206-2.228286 1.5187082-3.097272 2.1329628-.868985.6142546-1.522739 1.0011866-1.961263 1.160796-.57008.2074923-1.241931.0671485-2.015554-.4210312-.773622-.4881797-1.264179-1.0173097-1.471672-1.5873899-.079804-.2192616-.055943-.4265927.071583-.6219935l21.15577-31.3141754c.071744-.0757742.217247-.1535637.436508-.2333684.219262-.0798047.461457-.1307104.726586-.1527171.26513-.0220066.523286-.02906.77447-.0211601l.777491.0894784c.354688-.526389.688458-1.0079179 1.001309-1.444587.312851-.436669.776243-.7667301 1.390175-.9901832.350819-.1276876.670763-.1696454.959834-.1258736zm-32.275472 14.5780237c-.526227.1915313-1.316375 1.1247229-2.370444 2.7995747-1.054068 1.6748519-2.408009 3.8561415-4.061823 6.5438689-1.653813 2.6877273-3.633456 5.742355-5.938928 9.163883-2.305473 3.4215279-4.9508 6.9667532-7.935983 10.6356757.00403.1475179.065859.2491683.185485.304951.151549.1434875.424658.1434069.819329-.0002415.131557-.0478828.259124-.1067288.3827-.1765377.123577-.069809.287015-.166542.490316-.290199.884946-.5704023 1.898467-1.162771 3.040562-1.7771062 1.142095-.6143351 2.318087-1.2037615 3.527976-1.7682791s2.394869-1.0951383 3.55494-1.5918622c1.160072-.4967238 2.200557-.9126756 3.121455-1.2478554.131557-.0478828.219262-.0798047.263114-.0957656.043853-.015961.205316-.0498981.484391-.1018114.147196-1.0964691.403982-2.3693954.770359-3.8187789.366377-1.4493834.768626-2.936654 1.206746-4.4618117.438121-1.5251576.887205-3.0543055 1.347251-4.5874437.460047-1.5331381.872292-2.9247235 1.236734-4.1747563s.64521-2.3206257.842304-3.2117789.239777-1.4902129.128051-1.7971792c-.047883-.131557-.209387-.2341747-.484512-.3078531s-.478466-.0865762-.610023-.0386934zm27.561185-10.0314508c-.526228.1915313-1.316376 1.1247229-2.370444 2.7995747-1.054069 1.6748519-2.40801 3.8561415-4.061823 6.5438689-1.653814 2.6877273-3.633457 5.742355-5.938929 9.163883-2.305472 3.4215279-4.9508 6.9667532-7.935983 10.6356757.004031.1475179.065859.2491683.185486.304951.151548.1434875.424658.1434069.819329-.0002415.131557-.0478829.259123-.1067288.3827-.1765377.123576-.069809.287015-.166542.490316-.290199.884946-.5704023 1.898467-1.162771 3.040562-1.7771062 1.142095-.6143351 2.318087-1.2037615 3.527976-1.7682791s2.394869-1.0951383 3.55494-1.5918622c1.160071-.4967238 2.200556-.9126756 3.121455-1.2478554.131557-.0478828.219262-.0798047.263114-.0957656.043852-.015961.205316-.0498981.484391-.1018114.147196-1.0964691.403982-2.3693954.770359-3.8187789.366377-1.4493834.768625-2.936654 1.206746-4.4618117.438121-1.5251576.887204-3.0543055 1.347251-4.5874437.460047-1.5331381.872291-2.9247235 1.236733-4.1747563.364443-1.2500328.645211-2.3206257.842305-3.2117789.197093-.8911532.239777-1.4902129.12805-1.7971792-.047882-.131557-.209386-.2341747-.484511-.3078531s-.478466-.0865762-.610023-.0386934zm42.265095-17.3200399c.127687.3508186-.031681.7316243-.478104 1.1424172s-.952659.7936944-1.518709 1.1487045c-.681646.4467453-1.445031.8735797-2.290156 1.2805031-.920898.3351797-2.058076.7242478-3.411533 1.1672041-1.353457.4429564-3.004932.9198901-4.954425 1.4308013-.298906.4067623-.706354 1.1634162-1.222344 2.2699616-.515991 1.1065453-1.029966 2.2868496-1.541926 3.5409129s-.937223 2.4393252-1.275789 3.5557857-.501804 1.8959677-.489712 2.3385214c.047883.131557.128655.2511432.242316.3587588.113661.1076155.258197.1295014.433606.0656577 2.351903-1.4519624 4.426828-2.5051429 6.224773-3.1595414 2.762696-1.0055392 4.923592-1.2085167 6.482686-.6089326 1.559095.5995842 2.641901 1.7325705 3.248416 3.3989587.446907 1.227865.637712 2.6730972.572417 4.3356965-.065296 1.6625994-.364806 3.3980305-.898531 5.2062936-.533725 1.808263-1.25483 3.6474806-2.163316 5.5176526-.908485 1.8701721-1.997417 3.6197906-3.266797 5.2488554s-2.680353 3.0737725-4.232919 4.3341231-3.205895 2.2097447-4.959988 2.8481823c-.306967.1117266-.60696.2084998-.899981.2903198-.29302.0818199-.600994.156667-.923921.2245413l-.131557.0478828c-.430623-.0915741-.690795-.1582797-.780515-.2001168-.08972-.041837-.150541-.1066079-.182463-.1943125-.063843-.1754093-.002095-.3468686.185244-.514378.071744-.0757742.173394-.1376027.304951-.1854855.338889-.0240219.650853-.087906.935893-.1916521s.602969-.2194629.953788-.3471504c1.578683-.5745939 3.060594-1.4491811 4.445731-2.6237618 1.385137-1.1745806 2.636661-2.5115923 3.754574-4.0110348 1.117912-1.4994426 2.081293-3.1164562 2.890143-4.8510408s1.445273-3.4312419 1.90927-5.0899718c.463997-1.6587298.719695-3.2416453.767095-4.7487462.047399-1.507101-.120432-2.7868793-.503495-3.839335-.446906-1.2278651-1.215651-2.0778667-2.306236-2.5500049-1.090584-.4721383-2.556775-.3730277-4.398573.2973318-.964751.3511407-2.039092.8787385-3.223025 1.5827936-1.183932.704055-2.48342 1.6364-3.898463 2.797035-.613933.2234531-1.292757.0980627-2.036473-.3761713s-1.249226-1.0103368-1.516532-1.6083084c-.123818-.74952.036356-1.7762204.480523-3.0801012.444166-1.3038808.97902-2.6655999 1.60456-4.0851572.625541-1.4195574 1.25209-2.8022353 1.879646-4.1480337s1.024928-2.471247 1.192115-3.3763459c1.87775-.4351369 3.546193-.8313388 5.005331-1.1886058s2.802639-.7593536 4.030504-1.2062599c.74549-.271336 1.457082-.5675807 2.134778-.8887343.677696-.3211535 1.32746-.7190486 1.949292-1.1936852.346788-.2752055.651739-.460691.914853-.5564566.482376-.1755704.803368-.0440939.962978.3944293zm29.937916-11.7904197c.28907.0437718.473508.1752885.553313.3945501.079804.2192616.008141.5681455-.21499 1.0466516s-.56476 1.3477733-1.024887 2.6078018c-.460128 1.2600285-.980995 2.7283958-1.562603 4.4051019-.581608 1.676706-1.168174 3.4421244-1.759697 5.296255s-1.11231 3.5956075-1.562361 5.2244307c-.450051 1.6288233-.79152 3.0443099-1.024405 4.2464598-.232885 1.20215-.285484 1.9786342-.157796 2.3294528.031922.0877047.209346.0976199.532273.0297456.191371-.0199914.499344-.0948385.923922-.2245413s.868099-.2414696 1.330563-.3353005c.462465-.093831.901028-.1168855 1.315691-.0691638.414662.0477218.677857.2250658.789583.5320321.111727.3069662-.073598.5482345-.555973.7238049-.645855.1357485-1.36446.3103917-2.155818.5239297-.791357.213538-1.581706.4639554-2.371048.7512523-.219261.0798047-.344813.2124096-.376654.3978146-.031842.185405-.10153.471493-.209065.8582639-.143326.6977677-.314504 1.5919035-.513532 2.6824074-.199029 1.0905039-.358155 2.2906386-.477379 3.6004041s-.181617 2.6733388-.18718 4.0907198c-.005562 1.4173811.105479 2.7799065.333123 4.0875762.159771.9847425.130025 1.5170162-.089236 1.5968209-.087705.0319218-.215312-.0457871-.382821-.2331268-.16751-.1873398-.315108-.4564189-.442796-.8072375l-.071824-.1973354c-.33518-.9208988-.555771-1.9704122-.661774-3.1485402s-.135264-2.3841877-.087784-3.618179.13982-2.447064.27702-3.6392182c.137201-1.1921543.259488-2.2547265.366862-3.1877168.115435-.6379544.157191-1.000784.125269-1.0884886-.047883-.131557-.181455-.1574331-.400716-.0776284-1.754093.6384376-3.394525 1.3844908-4.921295 2.2381595s-2.888087 1.6843634-4.08395 2.492084c-1.195862.8077206-2.228286 1.5187082-3.097272 2.1329628-.868985.6142546-1.522739 1.0011866-1.961263 1.160796-.57008.2074923-1.241931.0671485-2.015554-.4210312-.773622-.4881797-1.264179-1.0173097-1.471672-1.5873899-.079804-.2192616-.055943-.4265927.071583-.6219935l21.15577-31.3141754c.071744-.0757742.217247-.1535637.436508-.2333684.219262-.0798047.461457-.1307104.726587-.152717.265129-.0220067.523285-.0290601.774469-.0211602l.777491.0894784c.354688-.526389.688458-1.0079179 1.001309-1.444587.312851-.436669.776243-.7667301 1.390175-.9901832.350819-.1276876.670763-.1696454.959834-.1258736zm23.676869-9.9585395c.398701.0038694.621993.0715827.669876.2031396l.023941.0657785c.111727.3069663.030068.560165-.244976.7595962-.275045.1994313-.542109.4207886-.801192.6640722-3.30021 3.4856133-6.331261 7.0967378-9.093152 10.8333736-1.195621 1.6270495-2.385237 3.3388212-3.568847 5.1353148s-2.26952 3.6567505-3.257729 5.5807706-1.86179 3.8559805-2.620742 5.795881-1.311581 3.8667825-1.657885 5.7806458c1.518387-2.2411431 3.100618-4.306877 4.746692-6.1972015 1.386992-1.6470411 2.904572-3.2422895 4.552743-4.7857455 1.64817-1.543456 3.283524-2.6104613 4.90606-3.2010161 1.008603-.3671016 1.907656-.4211912 2.697159-.1622689.789503.2589224 1.391746.9584638 1.806731 2.0986242.17557.4823755.175812 1.3017045.000725 2.4579869-.175088 1.1562823-.511598 2.4830567-1.009532 3.9803229-.497934 1.4972663-1.155316 3.1022287-1.972147 4.8148871-.81683 1.7126585-1.802137 3.3376525-2.955921 4.8749822s-2.46609 2.9461253-3.936916 4.2263868-3.113193 2.2256653-4.927099 2.8362116c-1.463087.4828587-2.711992.5649605-3.746713.2463053-1.034721-.3186551-1.807457-1.1796198-2.318207-2.5828941-.718242-1.9733545-.851491-4.2837832-.399747-6.9312861s1.280223-5.4197108 2.485438-8.3166235c1.205214-2.8969127 2.69051-5.8088593 4.455889-8.7358397 1.76538-2.9269804 3.613546-5.6606156 5.5445-8.2009056 1.930954-2.5402899 3.829099-4.7954996 5.694435-6.7656288 1.865336-1.9701293 3.507541-3.4617524 4.926616-4.4748695zm-28.391156 14.5051124c-.526228.1915313-1.316376 1.1247229-2.370444 2.7995747-1.054069 1.6748519-2.40801 3.8561415-4.061823 6.5438689-1.653814 2.6877273-3.633457 5.742355-5.938929 9.163883-2.305472 3.4215279-4.9508 6.9667532-7.935983 10.6356757.004031.1475179.065859.2491683.185486.304951.151548.1434875.424658.1434069.819329-.0002415.131557-.0478828.259123-.1067287.3827-.1765377.123576-.069809.287015-.166542.490316-.290199.884946-.5704023 1.898467-1.162771 3.040562-1.7771062 1.142095-.6143351 2.318087-1.2037615 3.527976-1.7682791s2.394869-1.0951383 3.55494-1.5918622c1.160071-.4967238 2.200556-.9126756 3.121455-1.2478554.131557-.0478828.219262-.0798047.263114-.0957656.043852-.015961.205316-.0498981.484391-.1018114.147196-1.0964691.403982-2.3693954.770359-3.8187789.366377-1.4493834.768625-2.936654 1.206746-4.4618117.438121-1.5251576.887204-3.0543055 1.347251-4.5874436.460047-1.5331382.872291-2.9247236 1.236733-4.1747564.364443-1.2500328.645211-2.3206257.842305-3.2117789.197093-.8911532.239777-1.4902129.12805-1.7971792-.047882-.131557-.209386-.2341747-.484511-.3078531s-.478466-.0865762-.610023-.0386934zm21.741477 7.9536402c-.789342.287297-1.693232.8397633-2.71167 1.6573991-1.018438.8176359-2.05977 1.7429275-3.123995 2.7758749-1.064225 1.0329475-2.097536 2.1167201-3.099933 3.2513179-1.002396 1.1345978-1.889197 2.1774604-2.660401 3.1285879-.771205.9511275-1.374013 1.7168098-1.808425 2.2970467-.434413.580237-.607766.8543945-.520062.8224726-.111404.7854724-.125149 1.4981532-.041233 2.1380423.083916.6398892.247596 1.3624852.491041 2.1677879.319218.8770464.680234 1.5278182 1.083046 1.9523152.402813.424497.801595.7014761 1.196346.8309373.394752.1294612.764554.1562644 1.109407.0804097.344854-.0758548.583059-.1377235.714616-.1856064 1.184013-.4309453 2.331065-1.1339927 3.441158-2.1091422 1.110093-.9751494 2.138406-2.1067646 3.084939-3.3948455s1.795366-2.6399251 2.546499-4.0555325c.751132-1.4156073 1.351765-2.8012678 1.801896-4.1569814.450132-1.3557136.755768-2.5967583.91691-3.723134.161141-1.1263758.122005-2.0184561-.117409-2.6762409-.351141-.9647511-1.118718-1.2316539-2.30273-.8007086zm34.937812-31.41392705c.28907.0437718.473508.17528851.553313.39455012.079804.21926161.008141.56814546-.21499 1.04665156s-.56476 1.34777339-1.024887 2.60780187c-.460128 1.2600285-.980995 2.7283958-1.562603 4.4051018-.581608 1.6767061-1.168174 3.4421244-1.759697 5.296255s-1.11231 3.5956076-1.562361 5.2244308c-.450051 1.6288233-.79152 3.0443099-1.024405 4.2464598s-.285484 1.9786342-.157796 2.3294528c.031922.0877046.209346.0976198.532273.0297456.191371-.0199915.499344-.0948386.923922-.2245413.424577-.1297028.868099-.2414697 1.330563-.3353006.462465-.0938309.901028-.1168855 1.315691-.0691637.414662.0477218.677856.2250658.789583.532032.111727.3069663-.073598.5482346-.555973.7238049-.645855.1357486-1.364461.3103918-2.155818.5239298-.791357.2135379-1.581706.4639554-2.371048.7512523-.219261.0798047-.344813.2124095-.376654.3978146-.031842.185405-.10153.4714929-.209065.8582639-.143326.6977677-.314504 1.5919035-.513532 2.6824074-.199029 1.0905039-.358155 2.2906386-.477379 3.6004041s-.181617 2.6733388-.18718 4.0907198c-.005562 1.4173811.105479 2.7799065.333123 4.0875762.159771.9847425.130025 1.5170161-.089236 1.5968208-.087705.0319219-.215312-.045787-.382821-.2331268-.16751-.1873397-.315108-.4564188-.442796-.8072374l-.071824-.1973355c-.33518-.9208987-.555771-1.9704121-.661774-3.1485401s-.135264-2.3841877-.087784-3.618179.13982-2.447064.27702-3.6392183c.1372-1.1921542.259488-2.2547264.366862-3.1877167.115434-.6379544.157191-1.000784.125269-1.0884886-.047883-.131557-.181455-.1574331-.400716-.0776284-1.754093.6384376-3.394525 1.3844907-4.921295 2.2381594-1.526771.8536688-2.888087 1.6843634-4.08395 2.492084-1.195862.8077207-2.228286 1.5187083-3.097272 2.1329629-.868985.6142546-1.52274 1.0011866-1.961263 1.160796-.57008.2074922-1.241931.0671485-2.015554-.4210312-.773622-.4881797-1.264179-1.0173097-1.471672-1.5873899-.079804-.2192616-.055943-.4265928.071583-.6219935l21.15577-31.31417544c.071744-.0757742.217247-.15356365.436508-.23336835.219262-.0798047.461457-.13071039.726586-.15271708.26513-.02200669.523286-.02906006.774469-.02116011l.777492.08947831c.354688-.52638891.688458-1.00791789 1.001309-1.44458691.312851-.43666903.776242-.76673012 1.390175-.99018328.350819-.12768752.670763-.16964538.959834-.12587359zm-4.714287 4.54657295c-.526228.1915313-1.316376 1.1247228-2.370444 2.7995747-1.054069 1.6748519-2.40801 3.8561415-4.061823 6.5438689-1.653814 2.6877273-3.633457 5.742355-5.938929 9.1638829-2.305472 3.421528-4.9508 6.9667533-7.935983 10.6356758.004031.1475179.065859.2491683.185486.304951.151548.1434874.424658.1434069.819329-.0002416.131557-.0478828.259123-.1067287.3827-.1765377.123576-.0698089.287015-.1665419.490316-.290199.884946-.5704023 1.898467-1.162771 3.040562-1.7771061s2.318087-1.2037615 3.527976-1.7682791 2.394869-1.0951383 3.55494-1.5918622 2.200556-.9126757 3.121455-1.2478554c.131557-.0478828.219262-.0798047.263114-.0957656.043852-.015961.205316-.0498981.484391-.1018114.147196-1.0964691.403982-2.3693954.770359-3.8187789s.768625-2.936654 1.206746-4.4618117c.438121-1.5251576.887204-3.0543055 1.347251-4.5874437.460047-1.5331381.872291-2.9247236 1.236733-4.1747563.364443-1.2500328.645211-2.3206258.842304-3.2117789.197094-.8911532.239778-1.490213.128051-1.7971792-.047882-.131557-.209386-.2341747-.484511-.3078531s-.478466-.0865762-.610023-.0386934z" fill="#e20000" fill-rule="evenodd"/></svg>