<svg height="75" viewBox="0 0 75 75" width="75" xmlns="http://www.w3.org/2000/svg"><g fill="#bf311a" fill-rule="evenodd" transform="translate(13 3)"><path d="m41.8885787 49.0790238c-1.5233981.4093279-3.1503966.5401174-4.6307295 1.0461808 2.5075331-2.1527364 2.3641178-5.4862419 4.0371608-8.0229351.5322211-.7171718.9731656-1.4702971 1.5938193-2.1519223-1.017585 2.045147-.5755571 4.6986554-1.7448184 6.6824778-.4502888.7877222-1.0935585 1.5522441-1.8056243 2.1718664.232796-.0088188.4364755-.2105658.6409675-.3450185 1.898526-1.898348 4.3788387-2.4295109 6.4324266-3.9714438.8224372-.6563899 1.5763494-1.5171045 1.9377992-2.4485052-.387316 3.1498031-3.5153675 6.1017939-6.4610012 7.0392999"/><path d="m48.7287299 36.3289961c-.9287461 1.3241764-2.0531816 2.5570443-2.9111003 3.9034712.0958811-1.0657178.2218265-2.3763268-.19271-3.3857399-.7176182-2.1734944-1.348158-4.3805003-1.5517021-6.7659172l.0278976-.9118637c.5406175 2.4360233 2.9295181 4.1111878 2.7787899 6.8428443.0537638.6626309-.1505929 1.2255415-.2745069 1.8086675l.0408984.0424659.1083402-.1208853c.3541369-1.3400503.5328981-2.7494298 1.0834016-4.000478.7828931-1.7997131 1.760934-3.6165211 1.3619713-5.7886588 1.190523 2.5616572.8304274 5.9844361-.4712797 8.376094"/><path d="m47.2623322 22.5261126c1.5668697 2.1272296 1.9096309 5.5163614.769486 7.9563192-.4256414 1.0330204-.7256082 2.1342847-.8932646 3.2797787-.0794946-.1979481-.097777-.4638688-.168469-.6832533-.6230914-2.3873164-2.8780565-4.089073-3.8047712-6.3405799-.2937373-.7363017-.5441385-1.4972961-.6832202-2.2954651.9909063 1.8352596 3.4314039 2.7826698 4.0968834 4.8052949.2730172.5113546.2573079 1.1510566.4263186 1.7005356.0354814 0 .0713691-.0257781.0713691-.0625457-.2927893-2.0832713-.2034087-4.2638208.0788174-6.3213141-.0169281-1.1141533-.124862-2.1956093-.7432135-3.0582233.3959833.2309168.5744737.6753842.850064 1.019453"/><path d="m46.158698 22.1189555c.4104738 1.8633441-.1895953 3.6778456.1883765 5.5603197l-.0139488.0153311c-1.0125743-1.9935909-3.1610952-2.9347601-4.6385842-4.5310982-.8572416-.9465961-1.2297963-2.0996879-1.4436327-3.3214305.8465429 2.045961 3.1319787 2.4968051 4.4443844 4.2210836.4394548.3968459.5825993.9475458.8660442 1.3978472l.0463155-.0443653c-.7552664-1.614247-1.0079699-3.4303766-1.5340968-5.1509919-.2642146-.7459346-.7869559-1.4784375-1.4891356-1.9489543 1.7228795.3526163 3.2156716 2.1540931 3.5742775 3.8022586"/><path d="m41.5526565 17.8449591c1.2975089 1.1634029 1.8843063 2.6693822 2.2629552 4.229224l.2151907.4956164c-1.883223-1.355924-3.5939142-3.1804654-4.79649-5.1063551l-1.467603-1.4882061c1.2904668.5490719 2.6819608.8761815 3.7859471 1.8697208"/><path d="m11.8167749 16.2229109c-1.3017071 1.1419664-2.20445153 2.5877066-3.16976241 3.9361685-.8655025 1.0734512-1.97219729 1.7816685-2.9537592 2.7053358.52978341-1.1007216.54914922-2.4145868 1.30021742-3.424814 1.06891116-1.868771 3.05126539-2.525975 4.82330419-3.2166903"/><path d="m4.6990833 20.2029564c.632842-.7882649 1.43523635-1.3369298 2.33852248-1.5670325-1.75362101 1.2061401-1.63932213 3.3693233-2.19537803 5.1664586-.17740703.6652087-.4850931 1.2779116-.63825901 1.9596725l.0445549.0347325c.29184132-.7699488.80469658-1.4983815 1.44458068-2.1265513 1.24550564-1.1520063 3.08755931-1.8697207 3.69819157-3.5733768-.02830387 2.366694-1.99955319 4.22841-3.88602633 5.558963-.77801782.6836604-1.52800261 1.4628351-1.9566234 2.342544-.04184639-.5976431.08802639-1.197457.04577372-1.836752-.20476291-2.0672618-.35359521-4.4264937 1.10466342-5.958658"/><path d="m1.15130851 27.2707885c-.05281583-2.0946679.81485348-3.8047006 2.03733682-5.3649495.03575226-.0177732.06094135-.0534554.10685049-.0455864-1.34626198 2.0503027-.23293135 4.6305472-.2944144 6.9604735l-.17659447 2.386231c.02600164.0175019.02600164.088595.08829724.0609175.07935917-.2652423.0966936-.5497503.14978028-.8229973.31743668-1.9239903 1.98546896-3.2898186 3.4421025-4.6194219.3110717-.3486817.58639114-.7011622.74619289-1.1091334-.11917418.9577214-.41859932 1.9242617-.81539518 2.8107543-1.13418611 2.2150106-3.22907864 4.0323613-3.61097773 6.5694616-.18634508-2.4312747-1.83812634-4.247947-1.67317844-6.8257494"/><path d="m.13270782 30.2487201c.15072825-.6547618.26638138-1.3328595.55063889-1.9345729-.53926318 2.7691025 1.31985407 4.7644572 1.93008006 7.1647982.25487024.8968039.31716583 1.8615804.68213677 2.7037077.03372087.0192657.06324357-.0176376.08464075-.0438226-.90856772-2.5493109.40261914-4.918854 1.71922301-6.9148871.32068689-.5410671.50513602-1.1431875.66398979-1.7659303.14030052 1.1548555-.15072825 2.4837805-.31838466 3.6815088-.32014519 1.5242953-.79806075 2.9697641-1.21422241 4.4495583-.2739652.9236673-.20191899 1.9663205-.06134762 2.9351672l-.13176873-.1056899c-.96558173-1.7839749-2.87737938-3.1753098-3.44508185-5.1238571-.46762324-1.5534651-.77815324-3.3529068-.459904-5.0459803"/><path d="m.04561586 35.6568545c.21288843 2.9351672 3.36247248 4.4859189 4.82330419 6.9152941.34492801.4968375.64503027 1.0468591 1.10710108 1.463242-.07231707-.3125924-.36361669-.5755283-.47033175-.8959898-.51068846-1.0187746-.69730439-2.2333266-.57460916-3.4648378.14138392-1.4990599.76907976-2.8898521.52951257-4.4669245 1.28315384 2.7719516.89312924 6.2312268 1.61128911 9.2349092.18729307.6565256.5672962 1.2429078.81580145 1.8705348-2.63659336-1.7991703-6.23104922-3.5094744-7.40071673-6.8068907-.49294776-1.1364038-.54806582-2.5445623-.44135076-3.8493373"/><path d="m1.62059748 42.3958947c1.46976978 3.3321488 5.15089777 3.6081093 7.61942845 5.6362971.45462243.4036296.93023577.746206 1.44282017.9863486l.0268142-.0269991c-.5670254-.5137967-1.22221251-1.0984151-1.61941465-1.7638952-1.44430983-2.0127209-.93632988-4.8317514-2.01837729-6.9952059.98318701 1.1781913 1.87794135 2.4038685 2.47110376 3.7406626.88364948 2.1827202 1.22112908 4.648049 3.26469548 6.2978426-2.2114936-.7300608-4.80258413-.5262787-6.75460307-1.8902076-2.13145734-1.3125084-4.03350438-3.5387799-4.43246705-5.9848431"/><path d="m5.39829719 48.610922c2.35707574 2.6855274 6.20789151 1.7899446 9.34731871 2.4923279.4433821.0607819.8492514.2389216 1.3193123.1663361-.3743152-.2362081-.8938063-.2112441-1.3023842-.4266941-2.4604052-.8662773-2.8213133-3.5355238-4.1575539-5.3351012 1.7067639 1.1347757 3.1414586 2.66694 4.7161829 4.1501261 1.1317485.994082 2.4939906 1.4519811 3.9293624 1.7446295-.3450634.1257697-.7973836.0917155-1.1673653.1887223-2.5789022.6357675-5.4439579 1.6736721-8.17859913.7429498-1.77759127-.5593831-3.61192571-1.9678129-4.50627378-3.7232964"/><path d="m37.3867469 54.8705996c-2.6560946.9928609-5.4277069-.0451794-7.5021502-1.6213021-.8397717-.5346905-1.5802768-1.304775-2.6665224-1.2362597-.3935456-.0074621-.773955.0118036-1.1084553.108132 2.0152625.9395411 3.8861618 2.234819 5.5982072 3.8913962-.2883202.3300944-.6622292.6386166-1.0141993.9229889-1.6488019-1.7804474-3.4755526-3.4942789-5.520744-4.4951446-.4005878.051963-.7812681.2935981-1.1420408.4877473-1.6649175 1.0547282-3.3115526 2.4114663-4.5496099 4.0718424l-1.0636295-.8795733c1.6976904-1.7200726 3.5749546-3.0597158 5.629355-4.0162161-2.0187836-.6401091-3.3356583 1.0535071-4.8677237 1.9157142-1.7857168 1.2484704-4.3533787 1.8351239-6.5111085.9726455-1.1605941-.4403972-2.2850296-1.089732-3.12520755-2.1452743 1.69863835 1.1726288 4.22770415 1.2950065 6.15846135.5336051 2.5913613-1.1260926 5.2842916-2.5543308 8.4084157-1.8705348.4876661.0080048.9609772.4952094 1.421423.0808616 2.3224068-.6036128 4.9506038-.1885866 6.9494799.8748247l2.0604945.8265249c1.914777.7093027 4.3911624.513661 6.0327868-.6548975-.8446471 1.0513363-1.9971156 1.8059541-3.1872323 2.2329196"/><path d="m40.2319899 52.1214819c-2.9808443 1.1278563-5.9810543-.2562879-8.8381199-.7189356l-.5502326-.070279v-.0166879c1.3664403-.3108287 2.691576-.7189355 3.7793112-1.7021636 1.601674-1.5423399 3.0272951-3.1305375 4.8051572-4.3453608-1.3186352 1.6945659-1.4579877 4.1065749-3.6372502 5.1961713-.5384506.3526162-1.2188268.4151618-1.7761016.6827106.793998.0170949 1.5208251-.2675488 2.3056142-.3474606 2.9213926-.4591202 6.2639575.0122106 8.3141597-2.4817454-.7614959 1.7375745-2.6673348 3.1926761-4.402538 3.803751"/><path d="m45.6500545 43.7169913c-1.1771159.7713056-2.3712954 1.4882061-3.5023667 2.3658799v-.107725c1.7331718-2.8860533.8860871-6.8507133 1.9533732-10.0271086l.3985564-1.0632756c-.2229099 1.9778528.6351442 3.6538314.57488 5.6395532-.0599934 1.1989495-.450966 2.2616825-1.0800161 3.2203536h.1065797c.8499286-1.1182235 1.5124287-2.3057764 2.50496-3.3701374 1.5403263-1.4884774 3.1069251-3.0144007 3.3083024-5.0797631.5234185 3.4481498-1.4073387 6.4700126-4.2642689 8.422223"/><path d="m21.0903545 15.4757688s2.5340765-.4336135 3.848649-.4336135c.0400859 0 .0807134.0006783.1207993.0010854-.0016251-.3328079-.0039273-.6667011-.0069067-1.0016798-1.3482933-.0082761-3.9625416.4030869-3.9625416.4030869z"/><path d="m26.3637444 14.099358v1.0024938s1.883223.2313238 2.7861028.4578991c-.0032502-.3442045-.0062296-.6884089-.0100215-1.0326134-.8900144-.2100231-2.7760813-.4277795-2.7760813-.4277795"/><path d="m30.8773447 15.0286015c.0088026.3572291.0167927.715815.0258662 1.0726371 3.0002101 1.1037064 5.6116143 3.0139937 7.5723005 5.4658908-.9120888.367676-1.967322.6955996-3.1222282.9721028-.1155177.1831597-.2479635.348546-.3846076.5113546-.1784904.2321379-.2713921.5470368-.5185431.7121518 1.7800289-.356008 3.3386377-.8143142 4.6465743-1.3677276 1.27557 1.80514 2.2159627 3.8616836 2.7290888 6.078865-1.1535519 2.0196403-5.7436539 3.6733684-11.6777156 4.2263749-.0293873.3390488-.0587746.6774193-.0885681 1.0152471 3.0545155-.272026 5.8120436-.8282886 8.0124324-1.6213021 1.8018324-.6504202 3.1596055-1.437464 4.0042525-2.3152735.143009.9351996.211805 1.8934637.1978562 2.8705864-.0285747 2.0512524-.419141 4.0202864-1.1073719 5.8445564-1.8016969 1.8018839-6.381642 3.1915907-11.8675818 3.6173351-.0010834.0137031-.0023022.0263208-.0028439.0383957-.0101569.2401427.0092089.6105322.0377836.9640981 4.6315421-.3541086 8.5825726-1.3616223 11.0058712-2.7685597-2.8951201 5.5848767-8.730186 9.4241741-15.3909394 9.4241741-.0828802 0-.165625-.0006783-.2475573-.0020351-4.6295107-.0649877-8.9560752-1.9317237-12.1833933-5.2570888-1.3780869-1.4200977-2.4838338-3.033395-3.29530161-4.7776175 2.49981391 1.6723154 6.90411251 2.9054546 12.15224561 3.3455805.0062295-.2188419-.0066359-.6158234-.0246474-1.0075137-6.2863027-.5439163-11.3910205-2.2672451-12.93310734-4.4061427-.55429538-1.754805-.8294794-3.6077022-.80320691-5.5018443.0144905-1.031528.12012216-2.0428406.3089049-3.0238979.80198808.9639624 2.18237725 1.8429931 4.07738215 2.5872996 2.3161773.9095572 5.2404138 1.5630979 8.5029425 1.9064883-.0360231-.3394558-.0720462-.6785047-.1080693-1.0191816-3.088101-.3383705-5.8460354-.9621987-8.0299023-1.8201998-2.2346513-.8765885-3.68722209-1.943663-4.12071818-3.0171142.59465209-2.1326566 1.58718343-4.1033187 2.89241158-5.8248837 1.2914148.5989999 2.8832027 1.1243289 4.6607939 1.5369129-.1621039-.2043247-.2445779-.4911392-.4318709-.6694146-.0970999-.140965-.2151907-.2590013-.3005086-.4123127-.028981-.0383956-.0957456-.1060969-.1461238-.1723057-1.1670944-.317341-2.2247653-.6844744-3.1330622-1.088104 2.0630677-2.4135014 4.7710301-4.2581225 7.8443698-5.2607519.0066358-.0455864.004469-.0993133-.0125946-.1683712-.0027085-.297397-.0058233-.5937086-.0086672-.8896132-2.8073645.8512175-5.3850479 2.3775478-7.5316729 4.4962301-3.45510333 3.4108395-5.39574655 7.9650023-5.46305288 12.8244311-.06906685 4.9054223 1.77298682 9.5435672 5.18664998 13.0596896 3.4139341 3.5178862 7.9900873 5.4930256 12.8854377 5.5619479.0880264.000814.1751048.0014924.2623186.0014924 4.8425346 0 9.4098851-1.8762332 12.8616028-5.2832739 3.4549679-3.4109752 5.3956111-7.9650023 5.46373-12.8244311.1132155-8.1364941-5.0999779-15.1283082-12.3969589-17.6348818"/><path d="m26.9576787 33.4667943c-.1979916.0020351-.3957124.0039346-.5922144.006241-.0744838.024964-.1207993.0769271-.1167365.1786824.0605351 2.311339-.0051462 4.4990792.0083963 6.7630681.1193097.2372935.0966936.6194866.1864806.8877137.4318709.1443569.775851.3250745 1.304551.2252185.2566308-.4346988.3992335-3.0743685.4368817-3.7418836.1260809-1.2876802.2722047-2.5524314.3166241-3.918938-.3151344-.3383705-1.0137931-.2824729-1.5439828-.4001021zm-4.8524206.3450185c.0919538 2.7224307.4869891 5.1355251.7277751 7.7042373.3121551.145578.7441615.1173578 1.0653901-.0103112.4152137-.02415.7804555-.0951074 1.0643067-.247062.355762-.7249052.2188472-1.7554834.208284-2.7901319-.0100215-1.0398041.0176053-2.1314356-.0887035-3.025119-.0035211-.3363353-.0069067-.6722637-.0100215-1.008192-.1082047-.2495042.0151676-.7354878-.1864805-.8887992-.3456051-.2254898-2.4595926.0716358-2.7805504.265378zm5.8840899-9.7879156c-.5278875.0058339-1.1191539.0113966-1.5989654.0157381-.1083402 2.4000697-.0743485 4.9392051-.1045483 7.4164732.8386883.2226407 1.6401347.482049 2.4356223.7470199.0918183-1.3586375.1977209-2.7034363.3752633-3.9776847.0193658-.7055038.0387316-1.412093.1573641-2.0186906-.0445549-.4166543.0931725-.6523197.0483468-1.0678886.0349397-.1420505.0824739-.27284.0548472-.4756724.0593162-.2558808.0315541-.2298314-.0632436-.4147548-.2609643-.3200545-.7762573-.2296957-1.3046864-.2245401zm-6.9290308-.049521c-.0739421.0248283-.1199867.0780125-.1166011.1794965.4153491 2.6830852.4993128 5.3406638.9081615 7.9997348 1.1368946-.1172222 2.0159396-.487476 3.1321142-.6246422.0507844-2.4566457.0130008-5.0001226-.0158448-7.5336953-1.241172-.0700077-2.586486-.0332401-3.9078298-.0208938zm5.2623527-.823947c.1795739-.0388027.5104177.0709574.5911311-.0649878-.2084194-.0470788-.3579288-.1539898-.593975-.1723057.000948.0792335.0017605.158467.0028439.2372935zm-1.6015385-.221284c-.0744838.1416434-.3839304.0537268-.4115572.2423134.2128885-.0641737.6876892.1267193.7084093-.1263123.0587745-.2005259-.1849908-.0907658-.2968521-.1160011zm3.5928308 26.6314121s-.2694962-3.4043272-.4813012-5.4238319c-.2150552-.4981942-.7303481-.6912581-1.4860208-.6372599-.0421172 2.1950666.0176053 6.406246.0176053 6.406246l-1.0567229.0567116s-.0636499-4.2007325-.085995-6.4526464c-.4757488-.1329603-1.2035238-.0071907-1.7770496-.0416518-.2405152.1358095-.4257768.3256171-.5867974.5399817-.0702857.3709322-.1129446.7765969-.0479405 1.1285348-.189189.4201818-.189189 1.0277291-.2204723 1.602986-.1350189.5284495-.0056878.999916-.1025169 1.6029861-.0739421.5657598-.1459883 1.4172486-.1459883 1.4172486l-.9183184-.1556178s0 .1073179.0102924-.00502c.1163302-1.4328511.2640791-2.8346329.3724193-4.2753531.0736713-.4657682.0100214-1.286052.1577703-1.9591298.0285748-.3645555-.0522741-1.7839749-.0797654-2.134963-.3040296-2.8647525-.6096843-5.7289623-.9145264-8.5931721-.1618332-.3268382.0348042-.6652087-.0689315-1.0071067-.1335292-.264971-.1297373-.6669725-.1296019-1.0666675-.1657604-.6095824-.1182262-1.437464-.2573079-2.0747239-.089516-1.4854926-.2822261-2.8671946-.3980147-4.3263665-.7162639-.0031205-1.1696675.3794797-1.833251.2562879-.3927331.0411091-.1680627-.5478509-.5381798-.5283138-.4317355.0217078-.5010732-.0991776-.9608418-.0480286-.2927893-.1803105-.3577934-.5942513-.60034-.8255751-.0972353-.140151-.2154615-.2581873-.2999668-.4114987-.0625664-.0820826-.2937373-.292784-.1814698-.3541086 1.5002405-.0154668 2.7762168-.0297126 4.2761864-.0455864-.0185533-1.8581885-.0368357-3.7170554-.0553889-5.5753795-.0647333-.3963032.3982855-.2747395.2889974-.7151367-.0238349-2.4322244-.0486177-4.8641774-.0723171-7.29653748.1176845-1.97825982-.0219389-4.21104371-.0033856-6.28766704.0427943-.25181059-.1161949-.70143359.1107778-.77252667.2593393 4.66812877.2527034 9.60882619.3214994 14.47178259-.0621601.3233107.209232.3055374.1244558.651777.0182824 1.8188431.0367002 3.6382289.0548472 5.4563936.9463514-.2250829 1.9017762-.4416183 2.7156817-.796948.0165219-.4599342-.4479866-.9217678-.1316333-1.304368.5756925-.069058.91886.1001273 1.2461827.2842366.1577704.0983636.3774301.1330961.5354713.2318666.1545202.0344611.212753-.0269991.1757819-.1794965.1183617-.001628.2368587-.0027134.3554912-.0035275.0822031-6.4396217-.1717192-13.99231132-.0249182-20.36775931l.0595871.02903419.0593162-.03066228c.3049776 6.05932801.1941997 13.3439262.3125614 19.5938759.0018959.2173495.0043336.4348346.0066358.6523197.0899224.108132.2487761.1461207.2992897.2938695 1.093694.3073012 1.4732909-.8995174 2.5989452-.5600615.1723963.6836603-.3067381 1.2211999-.3950353 1.842993.3897537.0808616.6784802.2651066 1.0687757.3458326-.0182824-1.8197929-.0364294-3.6386359-.0543055-5.4576147-.0690669-.321954.2861534-.2290174.1721254-.594794-.0083963-.8109224-.0161156-1.6214377-.0246474-2.4322244.0039274-.3291446.120393-.5470368.1096945-.8909699-.0284393-2.6320719-.0552535-7.6123861.0178761-10.14473776l.0586391.02916987.0597225-.03039094c.022616 2.31350981.0693377 6.99981887.0926309 9.31305733-.035346.4143478.0597225.6973634.068796 1.0678885-.0624311.4428394.0893806.6683292.129331 1.006157.0599934 2.7750721.1409777 5.5288434.1427382 8.3637477 1.5193354-.0149241 2.8150838-.0299839 4.33469-.0458578-.1408422.3508525-.3583351.6274914-.5830055.8963969-.2055754.2670061-.2988834.6468927-.6439468.7772753-.5521286.0051556-.881889.0113966-1.434153.0169592-.3126968.0451794-.1098298.5969648-.5269395.5391677-.5989857.0926652-.8359798-.1850591-1.3049573-.2242688-.4360691 6.0711316-.9957815 12.0227346-1.538972 17.9900758-.0203138.4901895.0801717 1.5371843.1365086 1.8385158.1294665.6669725.0930371 1.1700509.1966374 1.8965842.106715 1.2110244.2677356 3.2500661.2677356 3.2500661z"/></g></svg>